<?xml version="1.0" encoding="UTF-8"?><svg id="Capa_1" xmlns="http://www.w3.org/2000/svg" viewBox="0 0 587.01 556.09"><path d="M401.71,153.55c-37.33,46.22-195.77,220.08-218.66,133.09-23.11-87.85-48.95-166.19-8.95,48.02,15.33,97.39,124.98,172.2,45.4,143.35-.26-.1-41.78-5.42-76.72-89.05-26.13-62.54-28.37-87.14-26.05-142.15,12.1-287.03,742.01-295.29,70.77,118.23-7.21,4.44-66.66,43.55-55.51,17.64,8.44-19.61,50.05-75.85,73.29-38.97,40.89,64.89,103.7-16.84,127.4-18.02q23.7-1.19,35.55-9.48" style="fill:none; stroke:#1d1d1b; stroke-miterlimit:10; stroke-width:8px;"/></svg>