<?xml version="1.0" encoding="UTF-8"?><svg id="_레이어_1" xmlns="http://www.w3.org/2000/svg" viewBox="0 0 1755.87 1158.46"><path d="M1044.21,520.73c-30.2.25-59.21,28.07-64.57,68.07-3.55,26.54-.15,44.85,12.69,68.88,4.95,9.65,17.55,31.98,28.31,42.65,1.27,1.26,1.23,4.73-1.45,3.69-18.75-5.33-39.88-4.31-64.46.81l4.85,3.14c60.17-9.73,103.1,24.67,127.66,67.05,1.84-.15,3.71-.23,5.58-.23.63,0,1.24.01,1.86.03-.01-.46-.03-.93-.03-1.39,0-2.5.2-4.94.57-7.32-9.25-13.86-20.34-27.29-33.11-39.57-16.42-15.8-48.66-71.94-31.6-87.33,17.21-15.53,45.28,1.81,37.93,23.77-3.33,9.93-14.33,11.27-11.34,3.49,3.51-9.13-5.83-17.66-15.97-9.06-7.39,6.26,1.67,19.24,10.45,21.47,12.6,3.2,24.33-8.65,23.25-24.87-1.24-18.46-28.83-32.97-44.56-19.76-15.73,13.22-7.05,40.37,1.54,60.75,4.16,9.87.2,9.37-5.52,3.05-15.59-17.23-22.34-27.08-31.41-46.46-6.63-14.15-7.23-28.09-4.44-35.36,4.43-11.58,12.54-14.35,18.13-6.22,5.44,7.91,9.65,9.07,11.99,3.4,2.73-6.63-6.85-16.82-14.74-15.69-11.7,1.68-18.53,8.06-20.07,18.8l-1.51,10.4-1.7-13.34c-2.19-17.01,3.19-35.97,12.42-43.81,10.31-8.76,24.73-4.38,34.83,10.6,8.63,12.8,15.97,16.08,19.1,8.48,4.49-10.89-16.24-31.15-32.67-31.93-7.56-.36-12.24.98-17.75,5.14-12.03,9.08-11.38,4.97,1.45-9.15,19.38-21.32,36.77-23.09,60.47-6.04,14.54,10.45,23.7,8.47,21.71-4.74-.12-.79-.27-1.55-.46-2.27-1.34-4.98-4.61-8.21-12.26-12.52-8.15-4.59-16.7-6.69-25.16-6.62h0s0,0,0,0ZM1282.09,774.88c-1.79.03-3.65.36-5.52.99-3.81,1.66-7.37,4.66-9.91,8.11-6.74,9.14-8.62,33.17-6.98,52.96,4.33,52.23,7.84,51.19-7.92,79.34-17.39,31.06-43.2,29.18-83.16,26.55-12.4-.82-22.72-3.29-39.41-3.57-17.77-1.11-30.43,2.56-44.45,6.42,3.87-3.1,7.47-6.39,10.83-9.85-.93.04-1.84.06-2.77.06-4.8,0-9.49-.49-14.03-1.42-8.89,8.57-19.8,15.93-33.05,21.06,1.57,3.1,2.78,6.41,3.61,9.91,5.96-2.15,11.61-4.65,16.92-7.5.01,0,.02-.02.03-.03,20.1-4.09,41.95-6.6,63.49-2.3,19.9,3.28,35.45,19.87,47.25,36.52,3.49,5.45,6.57,13.12,7.87,19.38.69,3.35,1.6,9.2,1.43,11.59-.41,5.6-4.48,6.77-7.87,8.98-4.21,2.74-9.07,5.83-11.69,9.67-3.69,5.42-2.77,10.93,1.51,14.15,4.99,3.45,15.4,3.56,18.18-.32,2.14-2.98-.46-6.29-8.84-4.27-8.74,2.11-6.96-5.33-3.56-9.94,2.5-3.38,6.54-5.71,9.48-7.06,7.82-3.58,7.84-6.48,6.73-11.21-.71-3.03-.12-3.1,1.75-.52,15.71,21.64,29.18,34.57,41.27,37.88,12.09,3.31,16.74,3.37,23.25,2.61,6.5-.75,11.92-4.93,12.61-13.34.8-9.74-16.5-17.31-25.08-12.93-1.76.9-2.56,4.24-.54,7.21,3.35,4.91,9.24,3.9,8.57-.58-.67-4.4,3.54-2.73,7.43,1.16,4.48,4.48,3.1,8.49-1.59,11.91-3.16,2.3-6,2.72-15.49,2.15-12.46-2.24-19.7-6.97-26.13-12.81-7.19-6.53-13.12-14.6-19.15-25.39-4.67-8.34-8.84-17.52-16.73-32.19-.62-1.16-3.77-6.03-5.87-8.31-2.96-3.22-6.83-7.04-10.69-10.69.69.44,1.38.87,2.07,1.34,54.16,26.89,29.03,25.86,140,72.08,108.95,45.39,139.86,19.51,239.87,1.69,37.36-7.91,82.76-28.09,94.01-35.1,53.19-33.12,60.08-4.3,81.49.76,3.53.71,7.41,1.03,10.75.64,7.08-.82,13.91-1.37,21.41-16.27,5.54-10.99,1.05-20.7-8.89-24.55-9.6-3.72-11.73,1.49-5.28,12.84,9.47,19.93-2.73,24.52-18.64,20.69-12.86-3.1-10.86-5.98-23.92-12.11-26.85-12.61-43.76,7.05-35.31-5.08,17.52-25.17,45.75-59.62,53.52-93.32,4.55-19.73,1.13-51.57-6.9-64.21-5.97-9.4-14.29-19.57-29.42-19.5-1.57,0-3.21.14-4.93.38-23.09,3.22-36.04,33.21-17.29,39.69,4.34,1.5,10.6,3.41,16.06-.9,9.06-7.16,3.85-17.38-5.6-15.05-9.28,2.28-10.03-2.99-3.47-10.87,7.54-9.05,19.28-10.2,29.12-2.76,26.41,25.34,21.09,73.48.78,107.76-9.67,16.33-25.08,34.29-33.13,47.15-6.12,9.77-37.18,35.1-42.08,35.53-1.12.1,6.35-13.75,9.1-22.69,8.63-27.99,5.58-59.02-12.8-67.9-4.69-2.27-10.09-3.53-24.76,2.09,17.7-3.66,32.19,4.01,35.66,22.6,5.06,27.01-6.69,51.45-20.07,64.79-20.94,20.87-129.4,45.39-184.85,44.36-7.06-.13-11.75-1.07-3.58-6.48,30.41-16.49,44.73-31.37,53.12-55.03,3.32-9.37,3.89-18.42,4.96-32.05.21-3.82,3.44-16.04,7.6-23.04,20.64-30.72,67.7-32.24,73.03-8.34,8.67,25.61-9.63,52.92-28.26,40.59-10.7-7.09-9.79-27.31,1.19-26.67,6.79.4,8.37,5.39,3.34,10.34-2.94,2.9-3.2,4.25-.92,4.36,5.1.25,9.84-6.43,8.73-12.32-1.63-8.62-12.13-10.4-19.96-3.37-15.83,14.21-2.69,39.84,19.02,37.19,8.88-1.09,15.68-7.17,21.36-18.88,8.71-26.72-.24-52.9-28.53-55.35-7.85-.68-19.28,1.31-25.75,4.68,8.01-12.84,18.85-24.9,26.24-30.13,9.43-6.67,12.85-7.91,21.39-7.87,10.72.05,18.32,5.84,19.8,14.64,1.87,11.15-12.04,19.66-17.89,11.45-3.58-5.03,2.34-8.27,3.53-4.97.74,2.06,3.98,1.16,4.55-1.8,1.76-9.13-6.89-10.63-10.64-2.06-4.12,10.89,4.59,15.75,12.31,13.77,15.8-5.13,14.79-25.63-1.67-33.82-5.39-2.68-12.4-2.99-19.72-1.25-10.91,3.01-23.39,15.29-30.98,24.17-11.75,13.75-23.39,24.33-34.45,37.04-3.81,4.52-6.3,10.72-6.38,12.81-.1,2.36-3.97-14.53-10.51-24.67-11.37-17.62-20.65-23.84-32.14-26.93-8.34-2.35-19.93-.46-16.32,8.48,2.79,6.91,6.61,2.39,20.5,4.5,9.16,1.39,16.01,5.19,22.55,13.77,11.52,15.11,13.3,32.8,11.61,52.47,1.5,35.99-28.26,59.78-60.74,74.49-49.36,21.16-143.75-26.19-193.76-57.35-15.39-9.59-26.26-16.45-36.8-22.28-8.55-4.73-16.88-8.79-27.21-13.07-.81-.22-3.18-1.74.22-1.22,98.08,7.66,96.66-8.61,130.35-74.03,17.32-28.47,52.04-21.94,52.21,4.18.07,10.56-8.54,17.25-8.65,8.83-.13-9.89-12.91-14.06-19.07-1.83-4.49,8.9,8.6,16.95,17.48,15.25,12.74-2.44,18.57-17.98,12.23-32.74-5.9-13.73-14.98-17.23-29.17-16.3-16.07,1.05-26.59,12.91-36.99,33.53.26-34.28-9.67-61.79-2.34-87.65,3.01-10.64,5.25-14.34,9.08-16.91,5.68-3.81,12.46-3.76,15.27,2.73,2.45,5.64.62,8.82-3.77,6.48-4.47-2.38-8.92,6.02-5.15,11.45,2.27,3.27,7.92,3.74,10.24,3.2,6.83-1.6,8.48-13.57,4.44-22.08-3.09-5.77-7.9-8.47-13.28-8.4h0Z" style="fill:#1e1e1e; stroke-width:0px;"/><path d="M1020.52,940.63c-2.05,3.64-4.2,7.21-6.49,10.66,11.23,1.84,19.83,12.27,19.83,24.9,0,13.92-10.45,25.19-23.35,25.19-11.05,0-20.3-8.26-22.74-19.38-3.01,2.75-6.12,5.37-9.32,7.87,5.05,13.75,17.5,23.47,32.06,23.47,19.04,0,34.45-16.63,34.45-37.16,0-16.76-10.3-30.93-24.43-35.56h0Z" style="fill:#1e1e1e; stroke-width:0px;"/><path d="M1010.5,957.05c-.17,0-.34.02-.51.03-5.23,7.2-10.99,13.91-17.21,20.1,0,0,0,.02,0,.03.49,10.09,8.25,18.13,17.73,18.13s17.75-8.58,17.75-19.15-7.96-19.15-17.75-19.15h0s0,0,0,0ZM1010.5,971.43c2.45,0,4.42,2.12,4.42,4.76s-1.97,4.76-4.42,4.76-4.42-2.12-4.42-4.76,1.97-4.76,4.42-4.76Z" style="fill:#1e1e1e; stroke-width:0px;"/><path d="M1092.8,780.45c-22.23,0-42.03,11.28-54.74,28.82,2.26,9.17,3.8,18.64,4.61,28.36,6.91-22.73,26.74-39.16,50.13-39.16,3.27,0,6.46.35,9.56.96-3.65-5.5-6.19-11.94-7.22-18.91-.77-.03-1.56-.06-2.34-.06h0ZM1151.25,814.99c-4.71,2.01-9.82,3.11-15.19,3.11-1.2,0-2.41-.07-3.58-.17,8.12,10.01,13.06,23.08,13.06,37.42,0,31.42-23.62,56.89-52.74,56.89-23.8,0-43.91-17-50.48-40.36-1,9.68-2.77,19.1-5.23,28.21,12.66,18.31,32.91,30.16,55.71,30.16,38.34,0,69.42-33.54,69.42-74.9,0-14.87-4.04-28.7-10.96-40.36h0Z" style="fill:#1e1e1e; stroke-width:0px;"/><path d="M852.58,555.11c-19.04,0-34.45,16.63-34.45,37.16s15.42,37.16,34.45,37.16,34.45-16.63,34.45-37.16-15.42-37.16-34.45-37.16ZM852.58,567.07c12.91,0,23.36,11.28,23.36,25.19s-10.45,25.19-23.36,25.19-23.36-11.28-23.36-25.19,10.45-25.19,23.36-25.19Z" style="fill:#1e1e1e; stroke-width:0px;"/><path d="M852.58,573.12c-9.79,0-17.75,8.58-17.75,19.14s7.95,19.14,17.75,19.14,17.75-8.58,17.75-19.14-7.95-19.14-17.75-19.14ZM852.58,587.5c2.45,0,4.41,2.12,4.41,4.76s-1.96,4.76-4.41,4.76-4.41-2.12-4.41-4.76,1.96-4.76,4.41-4.76Z" style="fill:#1e1e1e; stroke-width:0px;"/><path d="M718.38,1120.06c17.27-16.5,18.87-44.96,3.57-63.59-15.3-18.63-41.68-20.35-58.96-3.85-14.94,14.27-18.16,37.5-8.85,55.57,5.35-2.07,11.17-2.15,16.52-.26-.4-.43-.78-.89-1.17-1.35-10.37-12.63-9.29-31.9,2.42-43.08,11.71-11.19,29.58-10.02,39.95,2.61,10.37,12.63,9.29,31.9-2.42,43.08-8.01,7.65-18.91,9.55-28.31,5.92.2.23.41.42.6.66,3.7,4.5,5.75,9.97,6.24,15.53,10.72.75,21.72-2.94,30.4-11.24h0Z" style="fill:#1e1e1e; stroke-width:0px;"/><path d="M704.96,1103.72c8.89-8.49,9.71-23.17,1.84-32.75-7.87-9.58-21.48-10.47-30.37-1.98-8.89,8.49-9.71,23.17-1.84,32.75,7.87,9.58,21.48,10.47,30.37,1.98h0ZM694.24,1090.67c-2.22,2.12-5.58,1.9-7.55-.49s-1.76-6.02.46-8.14,5.58-1.9,7.55.49c1.97,2.4,1.76,6.02-.46,8.14h0Z" style="fill:#1e1e1e; stroke-width:0px;"/><path d="M677.77,1152.3c9.4-8.98,10.27-24.48,1.95-34.62s-22.7-11.08-32.1-2.1c-9.4,8.98-10.27,24.48-1.95,34.62s22.7,11.08,32.1,2.1ZM674.26,1148.02c-7.21,6.88-18.24,6.16-24.62-1.61s-5.71-19.67,1.49-26.55c7.21-6.88,18.24-6.16,24.62,1.61s5.71,19.67-1.49,26.55Z" style="fill:#000; stroke-width:0px;"/><path d="M658.06,1138.37c-2.27-2.76-2.03-6.99.53-9.44,2.56-2.45,6.48-2.19,8.75.57s2.03,6.99-.53,9.44-6.48,2.19-8.75-.57Z" style="fill:#000; stroke-width:0px;"/><path d="M528.58,875.98c-11.96,0-21.64,10.44-21.64,23.34s9.68,23.4,21.64,23.4,21.64-10.5,21.64-23.4-9.68-23.34-21.64-23.34h0ZM528.58,880.48c9.66,0,17.47,8.42,17.47,18.84s-7.81,18.9-17.47,18.9-17.47-8.48-17.47-18.9,7.81-18.84,17.47-18.84Z" style="fill:#1e1e1e; stroke-width:0px;"/><path d="M534.81,899.35c0,3.72-2.8,6.74-6.25,6.74s-6.25-3.02-6.25-6.74,2.8-6.74,6.25-6.74,6.25,3.02,6.25,6.74Z" style="fill:#1e1e1e; stroke-width:0px;"/><path d="M227.96,829.63c-8.21,0-14.86,7.18-14.86,16.03s6.66,16.03,14.86,16.03,14.86-7.18,14.86-16.03-6.66-16.03-14.86-16.03ZM227.96,833.37c6.29,0,11.4,5.51,11.4,12.3s-5.11,12.3-11.4,12.3-11.4-5.51-11.4-12.3,5.11-12.3,11.4-12.3Z" style="fill:#1e1e1e; stroke-width:0px;"/><path d="M230.23,845.66c0,1.35-1.02,2.45-2.27,2.45s-2.27-1.1-2.27-2.45,1.02-2.45,2.27-2.45,2.27,1.1,2.27,2.45Z" style="fill:#1e1e1e; stroke-width:0px;"/><path d="M648.33,698.95c-9.59,0-17.37,8.39-17.37,18.73s7.78,18.73,17.37,18.73,17.37-8.39,17.37-18.73-7.78-18.73-17.37-18.73ZM648.33,703.31c7.35,0,13.32,6.44,13.32,14.37s-5.97,14.37-13.32,14.37-13.32-6.44-13.32-14.37,5.97-14.37,13.32-14.37Z" style="fill:#1e1e1e; stroke-width:0px;"/><path d="M651.41,717.68c0,1.84-1.38,3.33-3.09,3.33s-3.09-1.49-3.09-3.33,1.38-3.33,3.09-3.33,3.09,1.49,3.09,3.33Z" style="fill:#1e1e1e; stroke-width:0px;"/><path d="M870.13,652.67c-8.58,0-15.55,7.51-15.55,16.77s6.96,16.77,15.55,16.77,15.55-7.51,15.55-16.77-6.96-16.77-15.55-16.77ZM870.13,656.58c6.58,0,11.93,5.76,11.93,12.86s-5.34,12.86-11.93,12.86-11.93-5.76-11.93-12.86,5.34-12.86,11.93-12.86Z" style="fill:#1e1e1e; stroke-width:0px;"/><path d="M705.08,801.56c-31.76,0-57.51,27.77-57.51,62.03,0,9.31,1.9,18.15,5.31,26.07,1.74-1.08,3.72-1.72,5.87-1.72,6.55,0,11.9,5.77,11.9,12.84,0,3.65-1.44,6.89-3.71,9.23,10.15,9.7,23.5,15.56,38.13,15.56,13.76,0,26.38-5.26,36.28-13.95-2.19-6.26-4.03-12.7-5.51-19.29-7.47,9.27-18.47,15.12-30.77,15.12-22.5,0-40.76-19.59-40.76-43.85s18.26-43.96,40.76-43.96c10.65,0,20.36,4.45,27.62,11.67.8-6.76,1.98-13.42,3.5-19.9-8.97-6.24-19.66-9.84-31.13-9.84h0Z" style="fill:#1e1e1e; stroke-width:0px;"/><path d="M705.08,827.36c-18.53,0-33.55,16.26-33.55,36.24s15.02,36.13,33.55,36.13c12.23,0,22.94-7.03,28.81-17.56-1.58-9.57-2.42-19.4-2.42-29.46,0-3.67.14-7.34.36-10.95-6.13-8.71-15.83-14.4-26.75-14.4h0ZM705.08,843.37c10.32,0,18.66,9.1,18.66,20.23s-8.33,20.12-18.66,20.12-18.66-8.99-18.66-20.12,8.33-20.23,18.66-20.23h0Z" style="fill:#1e1e1e; stroke-width:0px;"/><path d="M830.56,1008.98c-13.8,0-24.99,12.07-24.99,26.96s11.19,26.96,24.99,26.96,24.99-12.07,24.99-26.96-11.19-26.96-24.99-26.96ZM830.56,1015.26c10.58,0,19.17,9.26,19.17,20.68s-8.59,20.68-19.17,20.68-19.17-9.26-19.17-20.68,8.59-20.68,19.17-20.68Z" style="fill:#1e1e1e; stroke-width:0px;"/><path d="M838.47,1035.94c0,4.71-3.54,8.53-7.91,8.53s-7.91-3.82-7.91-8.53,3.54-8.53,7.91-8.53,7.91,3.82,7.91,8.53Z" style="fill:#1e1e1e; stroke-width:0px;"/><path d="M775.17,918.28c-27.6,0-49.99,24.14-49.99,53.91s22.39,53.86,49.99,53.86,49.99-24.09,49.99-53.86-22.39-53.91-49.99-53.91ZM775.17,934.01c19.55,0,35.4,17.1,35.4,38.18s-15.85,38.13-35.4,38.13-35.4-17.04-35.4-38.13,15.85-38.18,35.4-38.18Z" style="fill:#1e1e1e; stroke-width:0px;"/><path d="M775.17,940.73c-16.1,0-29.17,14.09-29.17,31.46s13.07,31.4,29.17,31.4,29.17-14.04,29.17-31.4-13.07-31.46-29.17-31.46ZM775.17,954.63c8.97,0,16.23,7.89,16.23,17.56s-7.26,17.51-16.23,17.51-16.23-7.83-16.23-17.51,7.26-17.56,16.23-17.56Z" style="fill:#1e1e1e; stroke-width:0px;"/><path d="M910.07,955.58c-27.79,0-50.3,24.28-50.3,54.25s22.51,54.25,50.3,54.25,50.3-24.28,50.3-54.25-22.51-54.25-50.3-54.25ZM910.07,973.05c18.84,0,34.1,16.46,34.1,36.78s-15.26,36.78-34.1,36.78-34.11-16.46-34.11-36.78,15.26-36.78,34.11-36.78Z" style="fill:#1e1e1e; stroke-width:0px;"/><path d="M910.07,981.88c-14.3,0-25.91,12.52-25.91,27.95s11.61,27.95,25.91,27.95,25.91-12.52,25.91-27.95-11.61-27.95-25.91-27.95ZM910.07,1002.87c3.57,0,6.44,3.09,6.44,6.95s-2.87,6.95-6.44,6.95-6.44-3.09-6.44-6.95,2.87-6.95,6.44-6.95Z" style="fill:#1e1e1e; stroke-width:0px;"/><path d="M763.1,608.37c-47.84,0-86.63,41.83-86.63,93.43s38.79,93.43,86.63,93.43,86.63-41.83,86.63-93.43-38.79-93.43-86.63-93.43ZM763.1,636.21c33.58,0,60.81,29.37,60.81,65.58s-27.23,65.53-60.81,65.53-60.81-29.31-60.81-65.53,27.23-65.58,60.81-65.58Z" style="fill:#1e1e1e; stroke-width:0px;"/><path d="M763.1,645.17c-28.98,0-52.51,25.38-52.51,56.64s23.53,56.58,52.51,56.58,52.46-25.33,52.46-56.58-23.48-56.64-52.46-56.64ZM763.1,671.24c15.64,0,28.29,13.7,28.29,30.57s-12.65,30.51-28.29,30.51-28.34-13.65-28.34-30.51,12.7-30.57,28.34-30.57Z" style="fill:#1e1e1e; stroke-width:0px;"/><path d="M886.37,691.91c-9.77,0-19.31,1.01-28.55,2.95.14,2.3.26,4.61.26,6.95,0,15.41-3.21,30.02-8.86,43.13,11.58-4.65,24.08-7.23,37.16-7.23,58.88,0,106.62,51.49,106.62,115,0,45.22-24.22,84.32-59.42,103.1,13.51,7.04,23.96,19.76,28.76,35.29,43.78-28.01,73.13-79.51,73.13-138.39,0-88.81-66.75-160.8-149.09-160.8h0ZM791.91,799.4c-9.09,3.12-18.76,4.84-28.81,4.84-6.28,0-12.41-.69-18.35-1.95-4.85,15.86-7.47,32.8-7.47,50.41,0,23.7,4.76,46.22,13.3,66.47,7.41-4.01,15.73-6.28,24.58-6.28s16.75,2.13,24.01,5.95c-12.23-18.71-19.43-41.5-19.43-66.14,0-19.24,4.41-37.36,12.16-53.3h0ZM824.73,946.52c3.46,7.76,5.41,16.43,5.41,25.62s-2.16,18.7-5.93,26.73c9.22,4.57,18.95,8.14,29.06,10.62.17-16.95,6.84-32.22,17.42-43.07-16.94-2.69-32.6-9.68-45.97-19.9h0Z" style="fill:#1e1e1e; stroke-width:0px;"/><path d="M886.37,755.67c-49.68,0-89.98,43.46-89.98,97.04s40.3,96.99,89.98,96.99,89.93-43.41,89.93-96.99-40.25-97.04-89.93-97.04ZM886.37,801.52c26.22,0,47.46,22.91,47.46,51.19s-21.24,51.19-47.46,51.19-47.51-22.91-47.51-51.19,21.29-51.19,47.51-51.19h0Z" style="fill:#1e1e1e; stroke-width:0px;"/><path d="M294.25,488.92c-3.2-.04-6.29.79-8.86,2.82-9.51,7.5-5.26,28.64,4.88,26.9,2.34-.4,5.4-3.15,6.41-7.09,1.68-6.54-2.7-9.14-6.06-5.17-3.3,3.9-6.09,1.66-5.71-4.56.44-7.15,5.17-11.11,11.74-9.79,4.43.89,7.81,2.34,13.85,11.36,26.74,39.92,11.45,62.27,42.24,118.24-16.63-15.13-30.41-22.05-45.74-16.73-13.54,4.7-20.82,11.5-21.68,26.61-.93,16.23,9.72,28.44,22.41,25.71,8.85-1.9,18.33-14.53,11.15-21.06-9.86-8.97-20.37-.08-17.16,9.18,2.74,7.89-7.52,5.04-11.02-4.82-8.66-24.4,21.49-44.11,47.22-24.38,35.52,31.64,53.38,54.89,78.95,73.39,20.98,15.18,60.37,35.67,82.11,47.53,22.12,11.98,46.7,18.4,76.13,19.87,4.22.21,3.59.73-4.04,3.2-26.81,8.66-48.78,19.32-70.95,34.49-42.49,28.91-127.16,86.25-183.82,68.1-42.23-13.53-63.08-35.29-103.01-84.95-8.65-10.75-6.14-17.41-3.93-30.62,2.53-15.14,5.87-23.35,15.06-28.82,8.84-5.27,17.72-9.65,17.35-13.89-.65-7.31-12.89-4.09-22.65,6.01-7.85,8.13-13.72,25.26-14.9,43.49-.57,8.87-1.52,13.47-2.48,12.11-.85-1.2-4.76-3.35-8.65-4.79-32.56-19.96-61.81,14.12-85.58,19.32-20.25,4.43-38.68,1.61-52.61-20.37-10.95-18.06-26.2-54.57,1.19-64.96l5.09-.32-5.17,2.21c-9.38,3.99-7.79,16.99,2.07,17.05,7.04.05,10.9-4.45,10.24-12-.73-8.21-5.76-13.14-12.63-12.43-1.32.14-2.54.46-3.72.93-8.25,3.29-16.01,13.69-14.38,31.09,5.3,56.95,50.17,82.03,93.9,53.92,17.15-11.02,33.46-14.88,20.96-5.08-15.39,14.55-11.23,33.4,4.07,45.41,7.81,4.44,14.15,5.04,19.83,1.77,13.88-8,11.98-29-2.8-30.45-7.31-.71-12.86,4.98-10.56,10.81,1.57,3.99,6.93,5.85,9.86,3.46,1.31-1.07.64-1.76-2.21-2.18-4.86-.72-5.82-4.38-1.94-7.61,6.27-5.22,14.46,6.36,10.8,15.28-6.37,15.53-27.57,7.42-32.14-11.59-5.9-16.53,22.57-36.4,46.47-27.28,5.12,2.32,11.68,8.14,13.25,10.31,38.35,52.9,72.13,81.31,111.76,91.52,11.91,3.07,23.01,4.59,33.4,4.88-99.36,22.55-194.82-30.67-247.37-39.37-19.28-3.19-23.98-1.31-30.87.49-35.05,9.16-32.58-28.49-49.48-29.69-3.36-.24-4.17-.41-6.41-.35-2.88.08-5.37,1.5-8.16,4.36-4.61,4.72-5.3,12.13-1.56,16.53,3.61,4.25,5.81,1.6,5.44-6.54.35-22,20.07-7.94,26.48,5.43,9.13,19.06,25.73,13.43,18.24,19.47-14.04,11.32-35.23,25.89-46.71,44.36-6.72,10.81-12.55,30.56-11.74,39.8.66,7.59,2.45,16.33,11.58,18.68,11.53,2.97,24.56-12.18,17.32-20.02-1.68-1.81-4.14-4.3-7.69-2.88-5.9,2.36-5.84,9.54-.89,10.15,4.86.6,3.97,3.94-.93,7.25-5.63,3.81-11.36,1.99-14.22-4.53-1.92-4.39-1.87-7.86.43-18.71,1.56-7.33,4.91-17.28,7.41-22.11,8.51-16.45,29.05-38.2,43.8-46.31,6.24-3.43,25.92-11.16,27.45-10.78.57.14-3.14,3.41-8.22,7.26-11.57,8.78-22.06,26.83-25.24,43.4l-2.07,10.81,3.21-9.27c5.45-15.85,12.29-27.26,20.8-34.63,15.45-13.39,26.87-16.33,58.37-9.15,40.5,9.22,159.66,68.03,269.05,18.39,44.74-16.55,74.71-53.94,107.54-65.17-44.95,37.95-64.74,107.45-109.37,148.75-11.72,10.84-25.95,15.22-33.46,15.66-7.51.44-13.77-3.27-15.89-10.14-1.99-6.44.82-16.05,6.09-20.89,4.13-3.8,6.68-9.92,5.06-12.11-3.56-4.83-13.24,2.37-16.57,12.35-3.3,9.9-2,18.04,3.93,24.7,2.93,3.29,4.55,6.17,3.58,6.39-2.44.55-13.71-3.12-21.55-12.26-7.84-9.14-12.43-29.47-4.15-35.47,8.21-5.95,8.28-12.68,3.31-14.61-11.26-4.37-21.89,18.67-8.38,44.22,13.51,25.55,40.75,28.43,70.79,14,30.04-14.42,72.47-102.29,114.97-146.11,16.58-20.92,31.8-21.96,20.93-4.76-57.88,109.64-122.85,195.4-223.23,235.45-26.86,10.72-63.65,2.13-79.65-12.96-13.03-11.41-8.76-32.1,2.07-46.72-35.94,40.82,3.46,71.43,46.39,69.32,10.78-1.8,6.27-.04-8.94,5.03-44.06,8.99-120.64-2.81-123.72-63.54-.34-12.38,6.37-23.58,15.11-25.19,8.78-1.62,13.94,12.68,5.55,15.37-4.85,1.55-6.69-.44-2.69-2.93,2.45-1.53,2.56-2.33.48-3.86-3.76-2.77-7.84,2.17-5.09,6.16,3.05,4.43,11.39,2.56,12.96-2.91,1.5-5.23-1.27-11.44-5.1-13.23-22.27-10.41-34.86,23.3-20.43,52.63,14.43,29.33,63.39,47.97,102.58,43.67,186.24-20.35,265.84-212.83,308.06-272.6,36.1-24.02,77.84-34,113.95-27.25,16.78,3.14,17.35,3.13,16.41-.61-.93-3.68-2.13-4.15-23.11-8.31-23.5-4.66-38.75-5.82-65.46-5.03-10.03.3-26.14-1.03-41.05-3.4-23.18-3.69-25.33-4.32-38.71-11.33-23.31-12.22-36.1-28.28-33.54-42.13,1.65-8.94,6.87-12.22,15.54-9.7,7.97,2.32,10.99,1.03,11.45-4.94.38-4.91-6.66-9.89-13.74-9.73-11.3.25-21.21,14.07-19.18,26.76,1.46,9.13,3.78,13.62,11.31,21.91,7.62,8.38,6.05,8.18-3.58-.46-28.38-25.48-36.82-56.57-19.77-72.66,7.84-7.39,15.43-8.26,31.98-3.72,9.11,2.5,13.81,2.98,16.97,1.71,5.66-2.26,6.64-7.23,2.51-12.75-5.26-7.03-12.28-9.35-25.19-8.31-21.36,1.72-36.76,16.06-38.39,35.71-.9,10.87-2.85,7.37-3.58-6.39-.9-17,3.38-35.8,10.24-44.97,8.46-11.32,20.63-17.41,37.17-18.68,14.42-1.1,24.07-5.58,25.38-11.71,1.04-4.89-4.89-13.31-10.29-14.64-1.78-.44-3.77-.69-5.85-.73-.56,0-1.15-.02-1.72,0-8.68.3-19.04,3.83-27.56,9.59-25.06,16.95-37.16,44.81-33.46,77.13,2.54,22.18,10.31,41.47,25.29,60.78-22.05-8.13-64.31-38.1-90.27-67.43-27.68-31.31-31.2-55.49-44.77-105.84-5.14-19.08-16.63-41.01-24.16-45.5-3.57-2.13-7.85-3.61-11.96-3.66h-.01Z" style="fill:#1e1e1e; stroke-width:0px;"/><path d="M776.42,1037.01c-2.88.02-5.13,1.53-8.67,5.58-17.25,19.73-7.97,53.1,18.24,65.66,13.58,6.51,23.91,7.38,38.82,3.31,21.7-5.92,38.81-17.77,55.38-38.35,9.86-12.25,5.7-3.98-6.01,11.91-22.35,30.34-54.61,50.14-87.82,53.92-13.65,1.55-36.53-1.39-53.55-6.89-6.12-1.98-12.08-4.21-16.24-5.26-1.82,1.35-3.69,2.57-5.63,3.6.1.08.18.14.3.23,4.56,3.59,32.02,14.35,43.13,16.1,20.21,3.17,38.87,1.38,61.5-5.93,35.24-11.38,60.39-33.4,81.62-71.53.74-1.33-.98-2.84-4.74-4.18l-5.9-2.09-12.36,14.38c-10.67,12.39-14.66,15.61-28.9,23.3-14.96,8.08-17.58,8.92-27.69,8.92-8.81,0-12.09-.78-15.52-3.69-5.46-4.63-5.62-10.11-.38-12.26,5.1-2.09,6.42-4.51,3.77-6.89-3.1-2.77-10.1,1.52-10.78,6.59-1,7.54,1.31,12.82,6.79,15.51l5.31,2.61-7.41-1.1c-9.44-1.4-18.67-7.82-21.36-14.82-3-7.82,1.68-16.06,11.31-19.9,8.23-3.28,11.17-7.32,7.62-10.49-5.09-4.55-19.25,5.03-22.33,15.11-1.42,4.63-1.46,7.76-.13,11.85,2.89,8.94.79,7.88-4.66-2.38-8.24-15.49-6.34-26.57,6.6-38.52,7.94-7.33,8.37-13.32,1-14.24-.44-.05-.88-.09-1.29-.09h0Z" style="fill:#1e1e1e; stroke-width:0px;"/><path d="M492.3,965c3.11,8.79-1.13,35.34-8.78,55.06-.63,1.63-.95.54-.73-2.53.32-4.6-.79-6.91-7.65-15.87-4.42-5.77-10.95-14.49-14.52-19.38l-6.48-8.89,2.18-12.64c1.2-6.95,2.68-13.04,3.3-13.54.62-.5,4.37,2.85,8.35,7.45,6.49,7.5,9.02,11.79,13.44,22.73.75,1.84,1.08-.43.75-5.05-.51-7.11-1.81-10.18-8.41-19.88l-7.8-11.48,8,4.65c9.99,5.81,15.68,11.81,18.36,19.38h0,0Z" style="fill:#1e1e1e; stroke-width:0px;"/><path d="M719.71,976.55c-31.74,9.85-46.93,32.68-50.21,66.21,2.77-1.57,5.64-2.81,8.59-3.72,3.77-19.01,13.9-41.21,53.26-31.12-10.52-9.65-10.63-27.15-11.64-31.38h0Z" style="fill:#1e1e1e; stroke-width:0px;"/><path d="M247.07,1082.05c-1.26,3.49-1.86,10.7-1.34,16.03l.95,9.69,1.95-4.24c1.07-2.33,4.05-5.47,6.62-6.99,6.76-3.98,10.15-9.7,9.52-16.06-.7-7.07-2.23-7.49-6.92-1.92-2.06,2.46-4.48,4.86-5.37,5.35-2.58,1.41,3.09-7.67,5.86-9.39,4.79-2.96.89-4.65-4.03-1.75-3.15,1.86-5.79,5.22-7.25,9.26h0Z" style="fill:#1e1e1e; stroke-width:0px;"/><path d="M401.84,1057.63c-.69,16.27-1.37,18.98-3.15,12.57-.95-3.43-4.21-6.74-11.49-11.68-5.59-3.79-11.23-8.15-12.53-9.67-2.56-3.01-4.2-20.36-2.13-22.46,1.41-1.44,16.18,11.18,18.12,15.48,1.12,2.48,1.27,2.43,1.53-.54.35-3.97-4.73-10.68-12.39-16.37-5.17-3.84-5.25-4.01-1.85-3.8,1.95.12,6.79,1.89,10.75,3.94,10.25,5.3,13.91,14.37,13.14,32.55h0Z" style="fill:#1e1e1e; stroke-width:0px;"/><path d="M294.2,778.17c5.18.78,16.11,4.8,13.98,12.38-2.48,8.84-12.02,1.22-17.06-7.07-40.39-7.64-47.15,43.87-8.11,67.98-43.9-21.1-41.66-85.14,11.19-73.29h0Z" style="fill:#1e1e1e; stroke-width:0px;"/><path d="M304.64,1031.15c-5.4-3.55-9.57-12.49-11.35-24.33-.58-3.84-1.42-8.9-1.87-11.23-.77-4.02-.59-3.95,3.37,1.12,2.61,3.35,6.88,6.1,11.35,7.31,3.94,1.07,9.13,3.61,11.53,5.65,4.45,3.78,9.25,16.71,7.07,19.06-.66.71-5.65-1.21-11.08-4.29-8.74-4.94-9.6-5.15-7.54-1.8,1.28,2.08,5.52,5.61,9.42,7.83l7.09,4.05h-6.44c-3.54-.01-8.74-1.53-11.55-3.37h0s0,0,0,0Z" style="fill:#1e1e1e; stroke-width:0px;"/><path d="M300.69,1089.93c-2.01-14.51-9.33-22.45-20.97-22.72l-5.77-.14,6.99,3.9c3.85,2.15,7.7,5.38,8.56,7.19,1.26,2.66-.25,2.22-7.84-2.29-10.55-6.25-12.08-5.18-8.82,6.16,2.02,7.01,6.33,10.68,16.13,13.73,3.8,1.18,8.33,3.74,10.07,5.67,3.66,4.09,3.73,3.55,1.65-11.51h0s0,0,0,0Z" style="fill:#1e1e1e; stroke-width:0px;"/><path d="M588.02,971.14c-8.27-.01-15.94,1.92-21.58,5.9-17.21,12.14-15.97,33.02,2.05,34.43,8.74.16,17.76-6.82,11.96-16.79-5.12-7.73-14.47-4.14-11.48,4.62.97,2.84,4.64,2.97,5.23.73.93-3.6,7.84-1.75,4.47,4.15-5.5,9.64-21.82,4.39-21.04-7.26.62-9.21,8.31-16.85,20.12-19.44,9.41-2.06,13.32-1.62,24.49,2.85,10.78,4.32,15.61,8.44,25.59,21.91,6.76,9.12,15.94,23.25,19.99,31.48,3.77,7.67,4.14,9.48,9.41,18.57,1.65-1.46,3.31-2.92,4.97-4.37-9.66-27.57-18.1-42.54-41.4-63.89-8.5-7.79-22.15-12.86-32.78-12.87h0Z" style="fill:#1e1e1e; stroke-width:0px;"/><path d="M664.84,893.73c3.56,4.56,2.76,10.1.2,13.13-1.98,2.34-5.22,4.87-10.78,4.97-12.89.25-27.82-16.17-29.29-36.18-2.51-34.19,19.12-75.07,54.61-95.9,13.69-8.04,12.16-3.98-2.57,6.82-17.37,12.73-30.67,27.98-37.14,42.6-6.44,14.55-8.33,23.9-8.38,41.46-.03,11.68.68,15.87,3.79,22.23,4.84,9.9,12.77,15.84,21.15,15.84,13.06-.3,8.79-18.12,1.49-13.5-2.13,1.35.4.73,2.34,2.67,1.93,1.94-.89,4.09-3.1,3.71-3.89-.65-4.19-4.87-1.59-8.09,1.95-2.42,7.29-2.33,9.28.23h0Z" style="fill:#1e1e1e; stroke-width:0px;"/><path d="M417.54,780.13c-5.28-2.48-40.88-9.83-41.92-8.66-.21.24,1.69,1.46,4.23,2.7,6,2.94,10.89,11.59,15.54,27.51,1.95,6.67,5.08,13.7,6.95,15.62,4.23,4.36,16.18,8.63,23.03,8.23l5.16-.3-5.22-12.03c-2.87-6.62-7.49-14.41-10.27-17.32-4.14-4.33-4.44-5.13-1.67-4.41,5.86,1.52,13.3,10.58,18.08,22.01,2.53,6.06,4.85,10.4,5.15,9.63,1.07-2.74-1.68-22.22-3.93-27.8-2.84-7.04-7.28-11.5-15.14-15.19h0Z" style="fill:#1e1e1e; stroke-width:0px;"/><path d="M560.37,847.77c-5.4-3.88-9.86-11.54-12.16-20.88-.91-3.69.13-3.02,6.03,3.86,6.88,8.02,14,13.32,15.59,11.6.42-.46-1.22-2.52-3.65-4.58-4.6-3.9-13.76-16.11-13.84-18.44-.08-2.36,16.45-1.42,21.14,1.19,2.49,1.39,6.54,6.39,8.98,11.12,6.31,12.17,8.19,14.42,14.52,17.38,5.39,2.52,4.9,2.63-12.7,2.69-16.33.06-18.91-.37-23.91-3.96h0Z" style="fill:#1e1e1e; stroke-width:0px;"/><path d="M597.14,702.08c-6.95-11.65-17.32-17.42-49.42-27.54l-13.24-4.17,6.11,4.52c7.77,5.75,10.9,12.08,13.83,27.96,3.77,20.4,7.2,27.92,15.64,34.28,4.01,3.02,11.16,6.51,15.87,7.76l8.58,2.27-.37-3.42c-.6-5.54-8.81-28.88-12.02-34.16-1.63-2.67-4.57-6.44-6.54-8.37l-3.58-3.51,5.22,3.02c10.23,5.92,17.6,18.35,23.45,39.57l1.95,7.08.46-6.56c.96-13.7-1.82-31.84-5.92-38.72h0s0,0,0,0Z" style="fill:#1e1e1e; stroke-width:0px;"/><path d="M729.46,471.67c-1.68.04-3.36.12-5.04.26-23.07,3.78-43.49,13.28-61.74,29.08-60.74,54.27-51.29,134.74-4.34,192.51,4.68,3.91,9.08,7.12,9.78,7.12,2.98,0,.89-7.65-3.04-11.16-21.92-21.98-35.12-49.53-37.79-79.37,5.87-31.61,22.78-64.15,36.42-65.17,6.44-.48,9.16-.66,11.39,3.49,1.44,2.68,1.25,4.09-1.05,7.12-3.74,4.92-1.89,9.53,2.88,7.15,4.68-2.34,5.3-11.22,1.19-16.79-3.29-4.46-3.84-4.67-10.59-3.83-3.91.49-7.04.61-6.95.26.09-.35,3.88-2.08,8.43-3.83,14.84-5.72,27.86-1.34,29.25,9.82.6,4.84-.09,7.08-4.15,13.77-7.04,11.58-5.56,17.3,3.04,11.91,2.85-1.79,4.59-4.81,5.95-10.34,2.54-10.32.62-18.7-5.39-23.68-6.55-5.42-5.81-6.4,2.05-2.7,15.72,7.41,21.15,17.17,18.29,32.97-2.73,15.1-2.6,18.19.73,19.15,10.02,2.87,14.17-16.93,6.95-33.12-5.25-11.77-12.7-18.12-25.67-21.88-46.57-7.57-58.96,21.88-73.24,61.01-.42-19.65,4.78-38.54,12.85-55.87,22.52-42.29,69.54-66.98,102.69-61.42,22.87,3.84,39.76,20.85,45.32,40.57,4.88,17.28,2.62,29.37-17.67,37.48-13.4,5.35-24.28,25.69-9.86,32.45,16.17,3.46,26.77-6.92,34.69-21.32,25.49-51.9-13.28-96.79-65.39-95.62h0Z" style="fill:#1e1e1e; stroke-width:0px;"/><path d="M607.49,560.84c-.71-.66-3.58-4.07-6.37-7.57-5.89-7.41-15.11-12.18-24.32-12.59-5.34-.24-36.17,8.38-36.36,10.17-.04.41,1.89.53,4.3.27,5.28-.58,12.32,3.69,22.8,13.81,11.08,10.7,15.78,13.8,22.18,14.65,6.63.88,20.66-3.31,19.12-5.72-2.22-3.47-20.12-16.17-26.18-18.57-7.54-2.99-6.68-4.38,1.79-2.91,3.84.67,9.79,3.85,17.01,9.11,6.1,4.45,11.48,8.23,11.94,8.41.99.38-4.04-7.31-5.92-9.04h0s0,0,0,0Z" style="fill:#1e1e1e; stroke-width:0px;"/><path d="M340.1,824.06c4.32-.78,10.02-3.72,14.11,3.23,2.89,4.92-8.61,6.31-14.6,1.3-34.06,4.9-27.88,41.49,9.38,38-40.77,11.43-53.91-37.54-8.89-42.53h0Z" style="fill:#1e1e1e; stroke-width:0px;"/><path d="M483.55,740.42c-11.52,0-20.86,10.08-20.86,22.5s9.34,22.5,20.86,22.5,20.86-10.08,20.86-22.5-9.34-22.5-20.86-22.5ZM483.55,745.66c8.83,0,16,7.73,16,17.25s-7.17,17.25-16,17.25-16-7.73-16-17.25,7.17-17.25,16-17.25Z" style="fill:#1e1e1e; stroke-width:0px;"/><path d="M488.69,762.92c0,3.07-2.31,5.56-5.16,5.56s-5.16-2.49-5.16-5.56,2.31-5.56,5.16-5.56,5.16,2.49,5.16,5.56Z" style="fill:#1e1e1e; stroke-width:0px;"/><path d="M156.05,863.87c-.57.4-3.42,1.75-6.33,2.99-6.14,2.63-10.94,9.14-12.67,17.18-1,4.66.28,35.05,1.52,35.85.28.18.67-1.49.86-3.72.41-4.89,4.52-9.64,13.29-15.4,9.27-6.08,12.19-9.17,13.79-14.55,1.65-5.58.88-19.5-1.06-18.98-2.8.75-14.54,12.19-17.17,16.73-3.28,5.65-4.13,4.39-1.77-2.61,1.07-3.18,4.24-7.34,9.07-11.9,4.09-3.86,7.59-7.3,7.79-7.65.42-.75-5.78,1.02-7.3,2.08h0s0,0,0,0Z" style="fill:#1e1e1e; stroke-width:0px;"/><path d="M257.33,905.76c2.8,7.38-1.01,29.68-7.9,46.25-.57,1.37-.85.46-.66-2.12.29-3.86-.71-5.8-6.88-13.33-3.97-4.84-9.85-12.17-13.05-16.28l-5.83-7.47,1.96-10.61c1.08-5.84,2.41-10.96,2.97-11.38.55-.42,3.93,2.4,7.5,6.26,5.83,6.3,8.11,9.9,12.09,19.09.67,1.55.97-.36.67-4.25-.46-5.97-1.63-8.55-7.56-16.7l-7.01-9.64,7.19,3.9c8.98,4.88,14.1,9.92,16.51,16.28h0s0,0,0,0h0Z" style="fill:#1e1e1e; stroke-width:0px;"/><path d="M618.06,1059.1c-6.63,3.19-27.28.63-42.83-5.32-1.28-.49-.46-.82,1.91-.77,3.56.08,5.29-1.03,11.87-7.59,4.24-4.23,10.65-10.48,14.26-13.91l6.55-6.22,9.84,1.37c5.41.75,10.17,1.8,10.59,2.33.41.53-1.99,4.05-5.35,7.82-5.48,6.16-8.67,8.63-16.89,13.1-1.39.75.38.95,3.93.44,5.45-.79,7.76-2.09,14.93-8.45l8.48-7.52-3.21,7.38c-4.01,9.22-8.38,14.6-14.08,17.35h0,0Z" style="fill:#1e1e1e; stroke-width:0px;"/><path d="M613.47,941.6c4.94-4.03,22.56-6.18,36.55-4.46,1.16.14.53.59-1.45,1.04-2.97.67-4.21,1.95-8.51,8.77-2.77,4.39-6.99,10.92-9.37,14.52l-4.34,6.53-8.42.91c-4.63.5-8.78.62-9.22.26-.44-.35.94-3.78,3.05-7.61,3.46-6.26,5.66-8.97,11.7-14.39,1.02-.91-.49-.71-3.34.45-4.39,1.79-6.08,3.35-10.9,10.12l-5.71,8.01,1.35-6.8c1.69-8.5,4.36-13.87,8.61-17.34h0Z" style="fill:#1e1e1e; stroke-width:0px;"/><path d="M580.2,943.88c.82-9.51,1.29-11.07,2.17-7.26.47,2.04,2.29,4.07,6.43,7.18,3.18,2.39,6.36,5.11,7.08,6.04,1.42,1.84,1.93,12.04.67,13.22-.86.8-9.19-7.03-10.21-9.61-.59-1.49-.68-1.46-.91.27-.31,2.31,2.49,6.39,6.83,9.96,2.93,2.4,2.97,2.5.99,2.28-1.14-.13-3.93-1.31-6.19-2.63-5.87-3.41-7.78-8.83-6.86-19.45h0Z" style="fill:#1e1e1e; stroke-width:0px;"/><path d="M165.15,721.14c-4.35-9.7-11.55-15.98-34.33-29.94l-9.4-5.76,4.17,4.49c5.31,5.71,7.2,10.84,8.35,22.67,1.48,15.2,3.52,21.24,9.27,27.51,2.74,2.99,7.73,6.97,11.09,8.85l6.11,3.42-.06-2.49c-.09-4.03-4.63-22.25-6.64-26.66-1.02-2.23-2.93-5.51-4.25-7.29l-2.39-3.24,3.62,3.24c7.09,6.35,11.69,16.69,14.64,32.91l.98,5.41.74-4.53c1.55-9.46.66-22.85-1.91-28.58h0s0,0,0,0Z" style="fill:#1e1e1e; stroke-width:0px;"/><path d="M381.67,614.76c4.82-2.59,20.33-1.6,32.14,2.05.98.3.38.57-1.4.64-2.66.09-3.91.97-8.57,5.99-3,3.23-7.56,8.03-10.12,10.65l-4.66,4.77-7.39-.57c-4.06-.32-7.66-.87-7.98-1.24s1.34-3.01,3.7-5.88c3.86-4.68,6.14-6.61,12.11-10.18,1.01-.6-.32-.67-2.95-.15-4.04.8-5.71,1.84-10.82,6.74l-6.05,5.79,2.12-5.47c2.65-6.84,5.7-10.91,9.86-13.13h0Z" style="fill:#1e1e1e; stroke-width:0px;"/><path d="M397.53,689c-.46.54-2.91,2.62-5.43,4.62-5.33,4.22-8.45,11.82-8.25,20.07.12,4.78,8.46,33.85,9.84,34.29.32.1.3-1.63-.04-3.84-.74-4.85,2.12-10.56,9.26-18.52,7.55-8.41,9.66-12.18,9.94-17.83.3-5.85-3.71-19.11-5.46-18.08-2.53,1.49-11.22,15.75-12.71,20.85-1.86,6.36-2.97,5.37-2.33-2.05.29-3.37,2.39-8.26,6-13.99,3.05-4.85,5.64-9.13,5.75-9.52.24-.84-5.36,2.56-6.58,4h0s0,0,0,0Z" style="fill:#1e1e1e; stroke-width:0px;"/><path d="M364.23,654.74c-.61.19-3.43.55-6.26.8-5.98.52-12.25,5.05-16.55,11.95-2.49,4-12.37,32.55-11.65,33.67.17.26,1.08-1.17,2.04-3.18,2.1-4.4,7.17-7.52,16.42-10.12,9.78-2.74,13.28-4.69,16.52-9.17,3.36-4.65,7.73-17.79,5.95-17.91-2.56-.17-16.29,6.75-20.08,10.13-4.72,4.21-4.96,2.78-.51-2.97,2.02-2.61,6.11-5.47,11.71-8.19,4.73-2.3,8.84-4.39,9.13-4.65.62-.56-5.1-.86-6.73-.35h0s0,0,0,0h0Z" style="fill:#1e1e1e; stroke-width:0px;"/><path d="M872.89,669.44c0,1.65-1.24,2.98-2.77,2.98s-2.77-1.34-2.77-2.98,1.24-2.98,2.77-2.98,2.77,1.34,2.77,2.98Z" style="fill:#1e1e1e; stroke-width:0px;"/><path d="M1092.8,806.3c-25.11,0-45.47,21.96-45.47,49.04s20.36,49.04,45.47,49.04,45.47-21.96,45.47-49.04-20.36-49.04-45.47-49.04ZM1092.8,827.77c14.12,0,25.56,12.34,25.56,27.57s-11.44,27.57-25.56,27.57-25.59-12.34-25.59-27.57,11.47-27.57,25.59-27.57Z" style="fill:#1e1e1e; stroke-width:0px;"/><path d="M1319.1,993.81c6.26-7.4,13.56-9.5,34.77-10.03l8.75-.22-4.49,2.1c-5.72,2.68-8.73,6.84-13.31,18.42-5.88,14.87-9.29,19.89-15.52,22.88-2.96,1.42-7.9,2.49-10.97,2.38l-5.59-.2.83-2.56c1.34-4.13,10.43-20.27,13.31-23.61,1.46-1.69,3.9-3.93,5.43-4.97l2.79-1.89-3.69,1.14c-7.24,2.24-13.89,10.15-21.17,25.19l-2.43,5.01.88-5.16c1.84-10.78,6.72-24.13,10.42-28.5h0s0,0,0,0Z" style="fill:#1e1e1e; stroke-width:0px;"/><path d="M1101.6,962.77c-25.96,0-47,22.7-47,50.69s21.04,50.69,47,50.69,47-22.7,47-50.69-21.04-50.69-47-50.69ZM1101.6,977.87c18.22,0,32.99,15.93,32.99,35.58s-14.77,35.55-32.99,35.55-32.99-15.9-32.99-35.55,14.77-35.58,32.99-35.58Z" style="fill:#1e1e1e; stroke-width:0px;"/><path d="M1101.6,982.73c-15.72,0-28.49,13.77-28.49,30.73s12.77,30.7,28.49,30.7,28.46-13.74,28.46-30.7-12.74-30.73-28.46-30.73ZM1101.6,996.87c8.49,0,15.35,7.43,15.35,16.59s-6.86,16.56-15.35,16.56-15.38-7.4-15.38-16.56,6.89-16.59,15.38-16.59Z" style="fill:#1e1e1e; stroke-width:0px;"/><path d="M1299.3,1059.19c-10.84,4.22-15.31,11.58-21.33,35.09l-2.48,9.7,3.77-4.23c4.79-5.38,10.76-7.18,26.39-7.94,20.08-.97,27.22-2.89,32.52-8.73,2.52-2.78,5.12-7.89,5.76-11.37l1.17-6.32-3.4-.04c-5.5-.06-27.97,4.03-32.88,5.98-2.48.99-5.9,2.88-7.59,4.2l-3.07,2.4,2.36-3.69c4.63-7.25,16.21-11.7,36.85-14.18l6.88-.83-6.67-.96c-13.94-2-31.86-1.58-38.27.91h0s0,0,0,0Z" style="fill:#1e1e1e; stroke-width:0px;"/><path d="M1677.43,1001.51c-9.09,0-16.45,7.94-16.45,17.74s7.36,17.78,16.45,17.78,16.45-7.98,16.45-17.78-7.36-17.74-16.45-17.74h0ZM1677.43,1004.93c7.34,0,13.28,6.4,13.28,14.32s-5.94,14.36-13.28,14.36-13.28-6.44-13.28-14.36,5.94-14.32,13.28-14.32Z" style="fill:#1e1e1e; stroke-width:0px;"/><path d="M1683.07,1019.27c0,3.37-2.53,6.09-5.65,6.09s-5.65-2.73-5.65-6.09,2.53-6.09,5.65-6.09,5.65,2.73,5.65,6.09Z" style="fill:#1e1e1e; stroke-width:0px;"/><path d="M1514.4,1057.05c-4.19,4.1-9.26,21.17-10.51,35.39.97-2.12,6.17-6.19,9.83-7.94,7.15-2.57,9.53-3.58,15.36-6.76,1.76-.85,4.62-3.88,5.15-5.73.48-1.7,1.45-5.11,1.45-5.11,1.28-4.5,2.15-8.59,1.95-9.09-6.57-.13-12.53,4.03-17.41,8.38-.06-4.77,3.52-7.6,8.05-10.15l7.57-4.07h-5.76c-7.2-.02-12.06,1.56-15.67,5.09h0s0,0,0,0Z" style="fill:#1e1e1e; stroke-width:0px;"/><path d="M1583.24,1054.63c8.88,5.54,12.62,13.39,17.84,37.41l2.16,9.91-3.12-4.66c-3.97-5.93-8.86-8.47-21.59-11.2-16.35-3.51-22.19-6.31-26.59-12.76-2.09-3.07-4.27-8.46-4.84-11.98l-1.04-6.4,2.77.39c4.48.64,22.82,7.53,26.84,10.09,2.03,1.29,4.84,3.6,6.23,5.12l2.53,2.77-1.97-3.95c-3.87-7.75-13.35-13.63-30.18-18.7l-5.61-1.69,5.42-.1c11.32-.21,25.91,2.48,31.15,5.76h0s0,0,0,0Z" style="fill:#1e1e1e; stroke-width:0px;"/><path d="M1484.49,1002.31c-9.59,0-17.37,8.39-17.37,18.73s7.78,18.73,17.37,18.73,17.37-8.39,17.37-18.73-7.78-18.73-17.37-18.73ZM1484.49,1006.68c7.35,0,13.32,6.44,13.32,14.37s-5.97,14.37-13.32,14.37-13.32-6.44-13.32-14.37,5.97-14.37,13.32-14.37Z" style="fill:#1e1e1e; stroke-width:0px;"/><path d="M1487.57,1021.04c0,1.84-1.38,3.33-3.09,3.33s-3.09-1.49-3.09-3.33,1.38-3.33,3.09-3.33,3.09,1.49,3.09,3.33Z" style="fill:#1e1e1e; stroke-width:0px;"/><path d="M953.56,636.69c-13.9,0-25.15,12.13-25.15,27.12s11.25,27.19,25.15,27.19,25.15-12.2,25.15-27.19-11.25-27.12-25.15-27.12h0ZM953.56,641.92c11.22,0,20.3,9.79,20.3,21.89s-9.07,21.95-20.3,21.95-20.3-9.85-20.3-21.95,9.07-21.89,20.3-21.89Z" style="fill:#1e1e1e; stroke-width:0px;"/><path d="M960.81,663.84c0,4.32-3.25,7.83-7.26,7.83s-7.26-3.5-7.26-7.83,3.25-7.83,7.26-7.83,7.26,3.5,7.26,7.83Z" style="fill:#1e1e1e; stroke-width:0px;"/><path d="M1159.7,802.1c14.71-14.05,16.07-38.31,3.04-54.17-13.03-15.86-35.52-17.33-50.23-3.28-14.71,14.05-16.07,38.31-3.04,54.17s35.52,17.33,50.23,3.28ZM1154.21,795.41c-11.28,10.77-28.54,9.64-38.53-2.52-9.99-12.16-8.94-30.78,2.34-41.55,11.28-10.77,28.54-9.64,38.53,2.52,9.99,12.16,8.94,30.78-2.34,41.55Z" style="fill:#1e1e1e; stroke-width:0px;"/><path d="M1124.66,784.33c-5.61-6.83-5.02-17.26,1.31-23.31s16.01-5.41,21.61,1.41c5.61,6.83,5.02,17.26-1.31,23.31s-16.01,5.41-21.61-1.41Z" style="fill:#1e1e1e; stroke-width:0px;"/><path d="M1082.41,702.72c5.98-1.71,23.05,3.49,35.4,10.79,1.02.6.29.76-1.71.37-2.99-.59-4.58.09-10.96,4.65-4.11,2.93-10.3,7.26-13.77,9.61l-6.31,4.27-8.11-2.6c-4.46-1.43-8.34-3.01-8.62-3.52-.28-.51,2.19-3.12,5.5-5.8,5.4-4.38,8.39-5.99,15.88-8.55,1.26-.43-.2-.86-3.25-.95-4.69-.14-6.8.62-13.64,4.92l-8.09,5.09,3.64-5.74c4.55-7.18,8.9-11.06,14.06-12.54h0s0,0,0,0Z" style="fill:#1e1e1e; stroke-width:0px;"/><path d="M1040.72,745.57c-3.64,3.43-7.6,17.22-8.21,28.59-.05.94.36.5.96-1.03.9-2.28,2.01-3.11,7.62-5.69,3.61-1.66,9-4.21,11.97-5.66l5.4-2.64,1.8-6.6c.99-3.63,1.64-6.92,1.43-7.32-.2-.39-2.91.27-6.03,1.48-5.08,1.97-7.38,3.39-12.19,7.53-.81.7-.46-.48.78-2.61,1.91-3.28,3.29-4.43,8.93-7.43l6.68-3.55-5.2.23c-6.49.28-10.82,1.74-13.95,4.7h0s0,0,0,0h0Z" style="fill:#1e1e1e; stroke-width:0px;"/><path d="M1423.31,947.12c-5.67,1.08-39.1,16.19-39.36,17.79-.05.33,2.16.2,4.91-.27,6.51-1.13,15.01,3.17,27.06,13.65,5.04,4.39,11.25,8.38,13.8,8.87,5.76,1.11,17.91-2.46,23.41-6.88l4.14-3.33-10.51-6.91c-5.78-3.8-13.63-7.54-17.44-8.3-5.67-1.14-6.33-1.62-3.65-2.67,5.66-2.23,16.51.88,26.35,7.56,5.22,3.54,9.37,5.77,9.23,4.95-.51-2.93-12.79-17.51-17.53-20.82-5.98-4.18-11.96-5.24-20.41-3.63h0Z" style="fill:#1e1e1e; stroke-width:0px;"/><path d="M1214.33,894.15c-10.09-2.01-17.66,1.33-36.11,15.93l-7.61,6.02,5.18-1.36c6.59-1.72,11.84-.23,23.15,6.61,14.54,8.79,20.67,10.75,27.9,8.93,3.44-.87,8.34-3.43,10.9-5.71l4.65-4.14-2.34-1.64c-3.79-2.65-21.89-10.27-26.48-11.14-2.33-.44-5.85-.66-7.82-.48l-3.59.33,3.88-1.62c7.62-3.18,18.36-1,34.21,6.94l5.28,2.65-4.05-3.87c-8.47-8.09-21.19-16.27-27.15-17.46h0s0,0,0,0Z" style="fill:#1e1e1e; stroke-width:0px;"/><path d="M1232.62,948.75c-9.59,0-17.37,8.39-17.37,18.73s7.78,18.73,17.37,18.73,17.37-8.39,17.37-18.73-7.78-18.73-17.37-18.73ZM1232.62,953.11c7.35,0,13.32,6.44,13.32,14.37s-5.97,14.37-13.32,14.37-13.32-6.44-13.32-14.37,5.97-14.37,13.32-14.37Z" style="fill:#1e1e1e; stroke-width:0px;"/><path d="M1238.16,967.48c0,3.3-2.48,5.98-5.54,5.98s-5.54-2.68-5.54-5.98,2.48-5.98,5.54-5.98,5.54,2.68,5.54,5.98Z" style="fill:#1e1e1e; stroke-width:0px;"/><path d="M1290.84,928.24c8.01,5,11.38,12.08,16.09,33.74l1.94,8.94-2.82-4.21c-3.58-5.35-7.99-7.64-19.47-10.1-14.75-3.17-20.01-5.69-23.98-11.51-1.89-2.77-3.85-7.63-4.37-10.8l-.94-5.77,2.5.36c4.04.58,20.58,6.79,24.2,9.1,1.83,1.17,4.36,3.24,5.62,4.62l2.28,2.49-1.78-3.57c-3.49-6.99-12.04-12.29-27.22-16.87l-5.06-1.53,4.88-.09c10.21-.19,23.37,2.24,28.1,5.19h0s0,0,0,0Z" style="fill:#1e1e1e; stroke-width:0px;"/></svg>