<svg width="230" height="77" viewBox="0 0 230 77" fill="none" xmlns="http://www.w3.org/2000/svg">
<path d="M51.32 29H39.0153V27.8926H42.2965V5.49805H39.0153V4.39062H52.7145C54.902 4.39062 56.7614 4.91016 58.2926 5.94922C60.0973 7.17969 60.9996 8.80664 60.9996 10.8301C60.9996 11.4316 60.9176 12.0195 60.7536 12.5938C60.0973 14.918 58.3336 16.4766 55.4625 17.2695L61.7789 27.9336H62.3121C62.4489 27.9336 62.5856 27.9473 62.7223 27.9746C63.1598 28.0566 63.3786 28.3984 63.3786 29L56.1598 29.041L50.0485 17.7617H48.0387V27.8926H51.32V29ZM50.2536 5.49805H48.0387V16.5312H50.5817C51.402 16.5312 52.1266 16.3262 52.7555 15.916C54.1774 15.0137 54.8883 13.3867 54.8883 11.0352C54.8883 10.2695 54.7926 9.53125 54.6012 8.82031C53.945 6.60547 52.4957 5.49805 50.2536 5.49805ZM71.4882 20.0996C71.4882 22.6699 71.6522 24.543 71.9804 25.7188C72.4725 27.4688 73.5663 28.3438 75.2616 28.3438C76.2186 28.3438 76.9979 28.0566 77.5995 27.4824C78.6386 26.4434 79.1581 23.9277 79.1581 19.9355C79.1581 17.4473 78.994 15.6289 78.6659 14.4805C78.1737 12.7031 77.0526 11.8145 75.3026 11.8145C74.2636 11.8145 73.4569 12.1289 72.8827 12.7578C71.953 13.8242 71.4882 16.2715 71.4882 20.0996ZM75.5077 10.748C77.8593 10.748 79.869 11.3906 81.537 12.6758C83.6972 14.3984 84.7772 16.791 84.7772 19.8535C84.7772 22.1504 84.0936 24.1738 82.7264 25.9238C80.8944 28.248 78.3651 29.4102 75.1386 29.4102C72.787 29.4102 70.7636 28.6992 69.0682 27.2773C66.9354 25.4727 65.869 23.0254 65.869 19.9355C65.869 17.748 66.4979 15.834 67.7557 14.1934C69.5604 11.8965 72.1444 10.748 75.5077 10.748ZM93.256 27.8926L98.506 27.9336L98.3829 27.8926C100.078 27.8652 101.186 26.9902 101.705 25.2676L102.567 22.0273H103.633L103.551 29H87.7599V28.0977L98.7111 12.4707H93.8302C92.6818 12.498 91.7794 13.1543 91.1232 14.4395L89.7286 17.4746H88.7032L88.9904 11.3633H103.756V12.2246L93.256 27.8926ZM123.307 29.4102C121.12 29.2734 119.739 28.0293 119.165 25.6777C119.028 26.0605 118.85 26.4297 118.632 26.7852C117.538 28.5352 115.829 29.4102 113.505 29.4102C112.739 29.4102 112.042 29.3145 111.413 29.123C109.28 28.4395 108.214 26.8809 108.214 24.4473C108.241 20.8652 111.768 19.0059 118.796 18.8691V16.2031C118.796 15.4102 118.741 14.7266 118.632 14.1523C118.358 12.5938 117.579 11.8145 116.294 11.8145C115.911 11.8145 115.569 11.8828 115.268 12.0195C114.803 12.293 114.421 12.9766 114.12 14.0703C114.01 14.4531 113.928 14.7266 113.874 14.8906C113.464 16.0391 112.671 16.6133 111.495 16.6133C111.221 16.6133 110.962 16.5723 110.716 16.4902C109.704 16.2168 109.198 15.5469 109.198 14.4805C109.198 14.0156 109.321 13.5781 109.567 13.168C110.524 11.5547 112.862 10.748 116.581 10.748C117.538 10.748 118.426 10.8438 119.247 11.0352C122.419 11.8281 124.005 13.9336 124.005 17.3516V25.9238C124.005 27.2363 124.305 27.9199 124.907 27.9746C125.7 27.9473 126.178 26.9902 126.342 25.1035L127.409 25.1445C127.327 25.9922 127.204 26.6895 127.04 27.2363C126.548 28.6855 125.303 29.4102 123.307 29.4102ZM115.637 27.6465C115.829 27.6465 116.048 27.6055 116.294 27.5234C117.442 27.0859 118.276 25.9102 118.796 23.9961V20.0176C117.565 20.0723 116.553 20.2227 115.76 20.4688C114.284 21.0156 113.546 22.1914 113.546 23.9961C113.573 26.375 114.27 27.5918 115.637 27.6465ZM141.628 27.9336C141.792 27.9336 141.943 27.9473 142.079 27.9746C142.435 28.0293 142.613 28.3711 142.613 29H131.169V27.9336C131.935 27.9336 132.55 27.8789 133.015 27.7695C133.917 27.5234 134.368 26.8398 134.368 25.7188V3.40625H131.169V2.33984H139.577V27.9336H141.628ZM156.709 11.8145C154.521 11.8965 153.332 14.207 153.14 18.7461L155.765 18.8691C156.859 18.9238 157.679 18.8555 158.226 18.6641C158.992 18.3633 159.375 17.5703 159.375 16.2852C159.347 13.3594 158.459 11.8691 156.709 11.8145ZM164.379 24.7754C164.215 25.2129 163.996 25.6367 163.722 26.0469C162.328 28.2891 160.031 29.4102 156.832 29.4102C155.027 29.4102 153.414 29.041 151.992 28.3027C149.012 26.7441 147.521 23.9824 147.521 20.0176C147.521 17.584 148.178 15.5469 149.49 13.9062C151.213 11.8008 153.619 10.748 156.709 10.748C158.404 10.748 159.922 11.0352 161.262 11.6094C163.64 12.6758 164.83 14.3711 164.83 16.6953C164.83 17.1602 164.748 17.584 164.584 17.9668C163.873 19.498 161.316 20.1953 156.914 20.0586L153.14 19.9355C153.168 21.5215 153.304 22.8887 153.551 24.0371C154.179 26.8262 155.588 28.2207 157.775 28.2207C158.459 28.2207 159.129 28.0977 159.785 27.8516C161.426 27.25 162.629 26.1152 163.394 24.4473L164.379 24.7754ZM160.277 6.35938C159.867 6.63281 159.129 6.96094 158.062 7.34375C155.273 8.24609 153.482 8.88867 152.689 9.27148L152.074 8.36914C153.222 7.35742 154.33 6.23633 155.396 5.00586C156.517 3.69336 157.256 2.90039 157.611 2.62695C158.021 2.35352 158.445 2.20312 158.883 2.17578C159.265 2.17578 159.635 2.28516 159.99 2.50391C160.783 2.99609 161.179 3.70703 161.179 4.63672C161.152 5.34766 160.851 5.92188 160.277 6.35938ZM178.188 27.9336C178.352 27.9336 178.502 27.9473 178.639 27.9746C178.994 28.0293 179.172 28.3711 179.172 29H169.575V27.9336C169.793 27.9336 169.998 27.9199 170.19 27.8926C171.366 27.7559 171.953 27.0586 171.953 25.8008V12.4297H169.575V11.3633H176.875L177.08 14.5625C177.327 14.0703 177.655 13.5918 178.065 13.127C179.459 11.541 181.155 10.748 183.151 10.748C183.862 10.748 184.545 10.8574 185.202 11.0762C187.608 11.9238 188.811 14.043 188.811 17.4336V27.9336H190.164C190.328 27.9336 190.493 27.9473 190.657 27.9746C191.012 28.0293 191.19 28.3711 191.19 29H181.715V27.9336C182.098 27.9336 182.426 27.8926 182.7 27.8105C183.301 27.6191 183.602 26.9492 183.602 25.8008V16.7363C183.602 16.3535 183.575 15.9844 183.52 15.6289C183.246 13.7969 182.33 12.8809 180.772 12.8809C180.362 12.8809 179.965 12.9766 179.582 13.168C178.188 13.8516 177.395 15.2734 177.203 17.4336L177.162 27.9336H178.188Z" fill="#825377"/>
<path d="M50.4804 64.6797C50.6835 64.6797 50.8697 64.6966 51.039 64.7305C51.4791 64.7982 51.6991 65.2214 51.6991 66H40.1718V64.6797C40.4426 64.6797 40.6965 64.6628 40.9335 64.6289C42.3892 64.4596 43.1171 63.5964 43.1171 62.0391V45.4844H40.1718V44.1641H49.2109L49.4648 47.8711C50.9544 44.9258 53.3241 43.4362 56.5741 43.4023C57.1158 43.4023 57.6575 43.4701 58.1991 43.6055C60.2642 44.2148 61.703 45.7214 62.5155 48.125C64.1405 45.0104 66.595 43.4362 69.8788 43.4023C71.0637 43.4023 72.164 43.724 73.1796 44.3672C75.3801 45.7552 76.4804 48.1081 76.4804 51.4258V64.6797H78.1562C78.3593 64.6797 78.5624 64.6966 78.7655 64.7305C79.2057 64.7982 79.4257 65.2214 79.4257 66H67.8476V64.6797C68.3892 64.6797 68.8124 64.6289 69.1171 64.5273C69.7603 64.2565 70.082 63.4271 70.082 62.0391V50.8164C70.082 49.9701 69.9804 49.1914 69.7773 48.4805C69.2356 46.7539 68.2369 45.8906 66.7812 45.8906C66.4426 45.8906 66.1041 45.9583 65.7655 46.0938C64.1744 46.7708 63.2603 48.5143 63.0234 51.3242V51.6797V64.6797H63.8866C64.0898 64.6797 64.2929 64.6966 64.496 64.7305C64.9361 64.7982 65.1562 65.2214 65.1562 66H54.3905V64.6797C54.9322 64.6797 55.3554 64.6289 55.6601 64.5273C56.3033 64.2565 56.6249 63.4271 56.6249 62.0391V50.8164C56.6249 49.9023 56.5064 49.0729 56.2695 48.3281C55.7278 46.7708 54.8307 45.9922 53.578 45.9922C53.1379 45.9922 52.6978 46.1107 52.2577 46.3477C50.7004 47.1602 49.8202 48.9036 49.6171 51.5781L49.5663 64.6797H50.4804ZM134.408 65.0859C136.676 65.0859 137.979 64.2734 138.318 62.6484C138.352 62.4115 138.369 62.1914 138.369 61.9883C138.369 60.2617 137.285 58.8229 135.119 57.6719C134.645 57.401 133.883 57.0456 132.833 56.6055C130.294 55.4883 128.619 54.4557 127.806 53.5078C126.926 52.4922 126.486 51.2904 126.486 49.9023C126.486 47.0247 128.06 45.0781 131.208 44.0625C132.529 43.6224 134.001 43.4023 135.626 43.4023C138.267 43.4023 140.332 43.8763 141.822 44.8242C141.822 43.8086 142.126 43.25 142.736 43.1484C142.871 43.1146 143.007 43.0977 143.142 43.0977V49.4453H141.517C141.382 46.3646 139.706 44.8073 136.49 44.7734C134.323 44.7734 132.986 45.4844 132.478 46.9062C132.376 47.2448 132.326 47.5833 132.326 47.9219C132.326 49.3776 133.341 50.6133 135.372 51.6289C135.779 51.8659 136.456 52.1875 137.404 52.5938C140.044 53.7786 141.805 54.862 142.685 55.8438C143.701 56.9948 144.208 58.3659 144.208 59.957C144.208 62.9023 142.685 64.8828 139.638 65.8984C138.385 66.3047 136.98 66.5078 135.423 66.5078C132.444 66.5078 129.939 65.9831 127.908 64.9336C127.908 65.8138 127.688 66.3216 127.247 66.457C127.044 66.4909 126.807 66.5078 126.536 66.5078V58.7891H128.263C128.331 62.9531 130.379 65.0521 134.408 65.0859ZM161.915 64.6797C162.118 64.6797 162.304 64.6966 162.473 64.7305C162.913 64.7982 163.134 65.2214 163.134 66H150.641V64.6797C151.081 64.6797 151.471 64.6458 151.809 64.5781C152.994 64.375 153.587 63.5286 153.587 62.0391V45.4844H150.641V44.1641H160.036V64.6797H161.915ZM160.493 37.5117C160.493 38.1549 160.324 38.7643 159.985 39.3398C159.274 40.5924 158.174 41.2188 156.684 41.2188C156.075 41.2188 155.482 41.0664 154.907 40.7617C153.587 40.0846 152.926 39.0013 152.926 37.5117C152.926 36.8685 153.079 36.2591 153.384 35.6836C154.128 34.3633 155.229 33.7031 156.684 33.7031C157.328 33.7031 157.937 33.8724 158.512 34.2109C159.833 34.9219 160.493 36.0221 160.493 37.5117ZM169.313 55.0312C169.313 51.7135 170.311 49.0052 172.309 46.9062C174.543 44.5703 177.455 43.4023 181.043 43.4023C183.684 43.4023 185.884 43.9271 187.645 44.9766C189.439 46.0938 190.336 47.3971 190.336 48.8867C190.336 49.1576 190.302 49.4284 190.234 49.6992C189.828 50.9857 188.762 51.6289 187.035 51.6289C186.223 51.6289 185.58 51.4596 185.106 51.1211C184.496 50.681 184.09 49.6823 183.887 48.125C183.785 47.4818 183.701 47.0247 183.633 46.7539C183.294 45.3659 182.38 44.6719 180.891 44.6719C180.146 44.6719 179.503 44.8242 178.961 45.1289C177.167 46.2122 176.27 49.5977 176.27 55.2852C176.27 58.1289 176.557 60.3294 177.133 61.8867C177.912 63.9857 179.469 65.0352 181.805 65.0352C182.685 65.0352 183.565 64.8997 184.445 64.6289C186.714 63.918 188.322 62.5469 189.27 60.5156L190.59 60.8711C190.251 61.7513 189.76 62.5638 189.117 63.3086C187.221 65.4414 184.513 66.5078 180.992 66.5078C178.724 66.5078 176.71 66.0846 174.949 65.2383C171.191 63.3763 169.313 59.974 169.313 55.0312Z" fill="#333333"/>
<path d="M87.8542 64.375H91.7083" stroke="#825377" stroke-width="3" stroke-linecap="round" stroke-linejoin="round"/>
<path d="M87.8542 59.75H91.7083" stroke="#825377" stroke-width="3" stroke-linecap="round" stroke-linejoin="round"/>
<path d="M87.8542 55.125H91.7083" stroke="#825377" stroke-width="3" stroke-linecap="round" stroke-linejoin="round"/>
<path d="M87.8542 50.5H91.7083" stroke="#825377" stroke-width="3" stroke-linecap="round" stroke-linejoin="round"/>
<path d="M96.3333 64.375H100.187" stroke="#825377" stroke-width="3" stroke-linecap="round" stroke-linejoin="round"/>
<path d="M96.3333 59.75H100.187" stroke="#825377" stroke-width="3" stroke-linecap="round" stroke-linejoin="round"/>
<path d="M96.3333 55.125H100.187" stroke="#825377" stroke-width="3" stroke-linecap="round" stroke-linejoin="round"/>
<path d="M96.3333 50.5H100.187" stroke="#825377" stroke-width="3" stroke-linecap="round" stroke-linejoin="round"/>
<path d="M96.3333 45.875H100.187" stroke="#825377" stroke-width="3" stroke-linecap="round" stroke-linejoin="round"/>
<path d="M96.3333 41.25H100.187" stroke="#825377" stroke-width="3" stroke-linecap="round" stroke-linejoin="round"/>
<path d="M96.3333 36.625H100.187" stroke="#825377" stroke-width="3" stroke-linecap="round" stroke-linejoin="round"/>
<path d="M104.812 64.375H108.667" stroke="#825377" stroke-width="3" stroke-linecap="round" stroke-linejoin="round"/>
<path d="M113.292 64.375H117.146" stroke="#825377" stroke-width="3" stroke-linecap="round" stroke-linejoin="round"/>
<path d="M104.812 59.75H108.667" stroke="#825377" stroke-width="3" stroke-linecap="round" stroke-linejoin="round"/>
<path d="M113.292 59.75H117.146" stroke="#825377" stroke-width="3" stroke-linecap="round" stroke-linejoin="round"/>
<path d="M104.812 55.125H108.667" stroke="#825377" stroke-width="3" stroke-linecap="round" stroke-linejoin="round"/>
<path d="M113.292 55.125H117.146" stroke="#825377" stroke-width="3" stroke-linecap="round" stroke-linejoin="round"/>
<path d="M113.292 50.5H117.146" stroke="#825377" stroke-width="3" stroke-linecap="round" stroke-linejoin="round"/>
<path d="M113.292 45.875H117.146" stroke="#825377" stroke-width="3" stroke-linecap="round" stroke-linejoin="round"/>
</svg>
