<?xml version="1.0" encoding="UTF-8"?><svg id="_레이어_1" xmlns="http://www.w3.org/2000/svg" viewBox="0 0 1992 750.52"><path d="M1152.99,85.63c-30.2.25-59.21,28.07-64.57,68.07-3.55,26.54-.15,44.85,12.69,68.88,4.95,9.65,17.55,31.98,28.31,42.65,1.27,1.26,1.23,4.73-1.45,3.69-18.75-5.33-39.88-4.31-64.46.81l4.85,3.14c60.17-9.73,103.1,24.67,127.66,67.05,1.84-.15,3.71-.23,5.58-.23.63,0,1.24.01,1.86.03-.01-.46-.03-.93-.03-1.39,0-2.5.2-4.94.57-7.32-9.25-13.86-20.34-27.29-33.11-39.57-16.42-15.8-48.66-71.94-31.6-87.33,17.21-15.53,45.28,1.81,37.93,23.77-3.33,9.93-14.33,11.27-11.34,3.49,3.51-9.13-5.83-17.66-15.97-9.06-7.39,6.26,1.67,19.24,10.45,21.47,12.6,3.2,24.33-8.65,23.25-24.87-1.24-18.46-28.83-32.97-44.56-19.76-15.73,13.22-7.05,40.37,1.54,60.75,4.16,9.87.2,9.37-5.52,3.05-15.59-17.23-22.34-27.08-31.41-46.46-6.63-14.15-7.23-28.09-4.44-35.36,4.43-11.58,12.54-14.35,18.13-6.22,5.44,7.91,9.65,9.07,11.99,3.4,2.73-6.63-6.85-16.82-14.74-15.69-11.7,1.68-18.53,8.06-20.07,18.8l-1.51,10.4-1.7-13.34c-2.19-17.01,3.19-35.97,12.42-43.81,10.31-8.76,24.73-4.38,34.83,10.6,8.63,12.8,15.97,16.08,19.1,8.48,4.49-10.89-16.24-31.15-32.67-31.93-7.56-.36-12.24.98-17.75,5.14-12.03,9.08-11.38,4.97,1.45-9.15,19.38-21.32,36.77-23.09,60.47-6.04,14.54,10.45,23.7,8.47,21.71-4.74-.12-.79-.27-1.55-.46-2.27-1.34-4.98-4.61-8.21-12.26-12.52-8.15-4.59-16.7-6.69-25.16-6.62h0s0,0,0,0ZM1390.88,339.78c-1.79.03-3.65.36-5.52.99-3.81,1.66-7.37,4.66-9.91,8.11-6.74,9.14-8.62,33.17-6.98,52.96,4.33,52.23,7.84,51.19-7.92,79.34-17.39,31.06-43.2,29.18-83.16,26.55-12.4-.82-22.72-3.29-39.41-3.57-17.77-1.11-30.43,2.56-44.45,6.42,3.87-3.1,7.47-6.39,10.83-9.85-.93.04-1.84.06-2.77.06-4.8,0-9.49-.49-14.03-1.42-8.89,8.57-19.8,15.93-33.05,21.06,1.57,3.1,2.78,6.41,3.61,9.91,5.96-2.15,11.61-4.65,16.92-7.5.01,0,.02-.02.03-.03,20.1-4.09,41.95-6.6,63.49-2.3,19.9,3.28,35.45,19.87,47.25,36.52,3.49,5.45,6.57,13.12,7.87,19.38.69,3.35,1.6,9.2,1.43,11.59-.41,5.6-4.48,6.77-7.87,8.98-4.21,2.74-9.07,5.83-11.69,9.67-3.69,5.42-2.77,10.93,1.51,14.15,4.99,3.45,15.4,3.56,18.18-.32,2.14-2.98-.46-6.29-8.84-4.27-8.74,2.11-6.96-5.33-3.56-9.94,2.5-3.38,6.54-5.71,9.48-7.06,7.82-3.58,7.84-6.48,6.73-11.21-.71-3.03-.12-3.1,1.75-.52,15.71,21.64,29.18,34.57,41.27,37.88,12.09,3.31,16.74,3.37,23.25,2.61,6.5-.75,11.92-4.93,12.61-13.34.8-9.74-16.5-17.31-25.08-12.93-1.76.9-2.56,4.24-.54,7.21,3.35,4.91,9.24,3.9,8.57-.58-.67-4.4,3.54-2.73,7.43,1.16,4.48,4.48,3.1,8.49-1.59,11.91-3.16,2.3-6,2.72-15.49,2.15-12.46-2.24-19.7-6.97-26.13-12.81-7.19-6.53-13.12-14.6-19.15-25.39-4.67-8.34-8.84-17.52-16.73-32.19-.62-1.16-3.77-6.03-5.87-8.31-2.96-3.22-6.83-7.04-10.69-10.69.69.44,1.38.87,2.07,1.34,54.16,26.89,29.03,25.86,140,72.08,108.95,45.39,139.86,19.51,239.87,1.69,37.36-7.91,82.76-28.09,94.01-35.1,53.19-33.12,60.08-4.3,81.49.76,3.53.71,7.41,1.03,10.75.64,7.08-.82,13.91-1.37,21.41-16.27,5.54-10.99,1.05-20.7-8.89-24.55-9.6-3.72-11.73,1.49-5.28,12.84,9.47,19.93-2.73,24.52-18.64,20.69-12.86-3.1-10.86-5.98-23.92-12.11-26.85-12.61-43.76,7.05-35.31-5.08,17.52-25.17,45.75-59.62,53.52-93.32,4.55-19.73,1.13-51.57-6.9-64.21-5.97-9.4-14.29-19.57-29.42-19.5-1.57,0-3.21.14-4.93.38-23.09,3.22-36.04,33.21-17.29,39.69,4.34,1.5,10.6,3.41,16.06-.9,9.06-7.16,3.85-17.38-5.6-15.05-9.28,2.28-10.03-2.99-3.47-10.87,7.54-9.05,19.28-10.2,29.12-2.76,26.41,25.34,21.09,73.48.78,107.76-9.67,16.33-25.08,34.29-33.13,47.15-6.12,9.77-37.18,35.1-42.08,35.53-1.12.1,6.35-13.75,9.1-22.69,8.63-27.99,5.58-59.02-12.8-67.9-4.69-2.27-10.09-3.53-24.76,2.09,17.7-3.66,32.19,4.01,35.66,22.6,5.06,27.01-6.69,51.45-20.07,64.79-20.94,20.87-129.4,45.39-184.85,44.36-7.06-.13-11.75-1.07-3.58-6.48,30.41-16.49,44.73-31.37,53.12-55.03,3.32-9.37,3.89-18.42,4.96-32.05.21-3.82,3.44-16.04,7.6-23.04,20.64-30.72,67.7-32.24,73.03-8.34,8.67,25.61-9.63,52.92-28.26,40.59-10.7-7.09-9.79-27.31,1.19-26.67,6.79.4,8.37,5.39,3.34,10.34-2.94,2.9-3.2,4.25-.92,4.36,5.1.25,9.84-6.43,8.73-12.32-1.63-8.62-12.13-10.4-19.96-3.37-15.83,14.21-2.69,39.84,19.02,37.19,8.88-1.09,15.68-7.17,21.36-18.88,8.71-26.72-.24-52.9-28.53-55.35-7.85-.68-19.28,1.31-25.75,4.68,8.01-12.84,18.85-24.9,26.24-30.13,9.43-6.67,12.85-7.91,21.39-7.87,10.72.05,18.32,5.84,19.8,14.64,1.87,11.15-12.04,19.66-17.89,11.45-3.58-5.03,2.34-8.27,3.53-4.97.74,2.06,3.98,1.16,4.55-1.8,1.76-9.13-6.89-10.63-10.64-2.06-4.12,10.89,4.59,15.75,12.31,13.77,15.8-5.13,14.79-25.63-1.67-33.82-5.39-2.68-12.4-2.99-19.72-1.25-10.91,3.01-23.39,15.29-30.98,24.17-11.75,13.75-23.39,24.33-34.45,37.04-3.81,4.52-6.3,10.72-6.38,12.81-.1,2.36-3.97-14.53-10.51-24.67-11.37-17.62-20.65-23.84-32.14-26.93-8.34-2.35-19.93-.46-16.32,8.48,2.79,6.91,6.61,2.39,20.5,4.5,9.16,1.39,16.01,5.19,22.55,13.77,11.52,15.11,13.3,32.8,11.61,52.47,1.5,35.99-28.26,59.78-60.74,74.49-49.36,21.16-143.75-26.19-193.76-57.35-15.39-9.59-26.26-16.45-36.8-22.28-8.55-4.73-16.88-8.79-27.21-13.07-.81-.22-3.18-1.74.22-1.22,98.08,7.66,96.66-8.61,130.35-74.03,17.32-28.47,52.04-21.94,52.21,4.18.07,10.56-8.54,17.25-8.65,8.83-.13-9.89-12.91-14.06-19.07-1.83-4.49,8.9,8.6,16.95,17.48,15.25,12.74-2.44,18.57-17.98,12.23-32.74-5.9-13.73-14.98-17.23-29.17-16.3-16.07,1.05-26.59,12.91-36.99,33.53.26-34.28-9.67-61.79-2.34-87.65,3.01-10.64,5.25-14.34,9.08-16.91,5.68-3.81,12.46-3.76,15.27,2.73,2.45,5.64.62,8.82-3.77,6.48-4.47-2.38-8.92,6.02-5.15,11.45,2.27,3.27,7.92,3.74,10.24,3.2,6.83-1.6,8.48-13.57,4.44-22.08-3.09-5.77-7.9-8.47-13.28-8.4h0Z" style="fill:#889e90; stroke-width:0px;"/><path d="M1129.31,505.53c-2.05,3.64-4.2,7.21-6.49,10.66,11.23,1.84,19.83,12.27,19.83,24.9,0,13.92-10.45,25.19-23.35,25.19-11.05,0-20.3-8.26-22.74-19.38-3.01,2.75-6.12,5.37-9.32,7.87,5.05,13.75,17.5,23.47,32.06,23.47,19.04,0,34.45-16.63,34.45-37.16,0-16.76-10.3-30.93-24.43-35.56h0Z" style="fill:#889e90; stroke-width:0px;"/><path d="M1119.28,521.95c-.17,0-.34.02-.51.03-5.23,7.2-10.99,13.91-17.21,20.1,0,0,0,.02,0,.03.49,10.09,8.25,18.13,17.73,18.13s17.75-8.58,17.75-19.15-7.96-19.15-17.75-19.15h0s0,0,0,0ZM1119.28,536.34c2.45,0,4.42,2.12,4.42,4.76s-1.97,4.76-4.42,4.76-4.42-2.12-4.42-4.76,1.97-4.76,4.42-4.76Z" style="fill:#889e90; stroke-width:0px;"/><path d="M1201.58,345.35c-22.23,0-42.03,11.28-54.74,28.82,2.26,9.17,3.8,18.64,4.61,28.36,6.91-22.73,26.74-39.16,50.13-39.16,3.27,0,6.46.35,9.56.96-3.65-5.5-6.19-11.94-7.22-18.91-.77-.03-1.56-.06-2.34-.06h0ZM1260.04,379.89c-4.71,2.01-9.82,3.11-15.19,3.11-1.2,0-2.41-.07-3.58-.17,8.12,10.01,13.06,23.08,13.06,37.42,0,31.42-23.62,56.89-52.74,56.89-23.8,0-43.91-17-50.48-40.36-1,9.68-2.77,19.1-5.23,28.21,12.66,18.31,32.91,30.16,55.71,30.16,38.34,0,69.42-33.54,69.42-74.9,0-14.87-4.04-28.7-10.96-40.36h0Z" style="fill:#889e90; stroke-width:0px;"/><path d="M961.36,138.02c-9.79,0-17.75,8.58-17.75,19.14s7.95,19.14,17.75,19.14,17.75-8.58,17.75-19.14-7.95-19.14-17.75-19.14ZM961.36,152.4c2.45,0,4.41,2.12,4.41,4.76s-1.96,4.76-4.41,4.76-4.41-2.12-4.41-4.76,1.96-4.76,4.41-4.76Z" style="fill:#889e90; stroke-width:0px;"/><path d="M827.16,684.96c17.27-16.5,18.87-44.96,3.57-63.59-15.3-18.63-41.68-20.35-58.96-3.85-14.94,14.27-18.16,37.5-8.85,55.57,5.35-2.07,11.17-2.15,16.52-.26-.4-.43-.78-.89-1.17-1.35-10.37-12.63-9.29-31.9,2.42-43.08,11.71-11.19,29.58-10.02,39.95,2.61,10.37,12.63,9.29,31.9-2.42,43.08-8.01,7.65-18.91,9.55-28.31,5.92.2.23.41.42.6.66,3.7,4.5,5.75,9.97,6.24,15.53,10.72.75,21.72-2.94,30.4-11.24h0Z" style="fill:#889e90; stroke-width:0px;"/><path d="M813.74,668.62c8.89-8.49,9.71-23.17,1.84-32.75-7.87-9.58-21.48-10.47-30.37-1.98-8.89,8.49-9.71,23.17-1.84,32.75,7.87,9.58,21.48,10.47,30.37,1.98h0ZM803.02,655.58c-2.22,2.12-5.58,1.9-7.55-.49s-1.76-6.02.46-8.14,5.58-1.9,7.55.49c1.97,2.4,1.76,6.02-.46,8.14h0Z" style="fill:#889e90; stroke-width:0px;"/><path d="M786.55,717.2c9.4-8.98,10.27-24.48,1.95-34.62s-22.7-11.08-32.1-2.1c-9.4,8.98-10.27,24.48-1.95,34.62s22.7,11.08,32.1,2.1ZM783.04,712.92c-7.21,6.88-18.24,6.16-24.62-1.61s-5.71-19.67,1.49-26.55c7.21-6.88,18.24-6.16,24.62,1.61s5.71,19.67-1.49,26.55Z" style="fill:#889e90; stroke-width:0px;"/><path d="M766.84,703.27c-2.27-2.76-2.03-6.99.53-9.44,2.56-2.45,6.48-2.19,8.75.57s2.03,6.99-.53,9.44-6.48,2.19-8.75-.57Z" style="fill:#889e90; stroke-width:0px;"/><path d="M757.11,263.85c-9.59,0-17.37,8.39-17.37,18.73s7.78,18.73,17.37,18.73,17.37-8.39,17.37-18.73-7.78-18.73-17.37-18.73ZM757.11,268.21c7.35,0,13.32,6.44,13.32,14.37s-5.97,14.37-13.32,14.37-13.32-6.44-13.32-14.37,5.97-14.37,13.32-14.37Z" style="fill:#889e90; stroke-width:0px;"/><path d="M760.19,282.58c0,1.84-1.38,3.33-3.09,3.33s-3.09-1.49-3.09-3.33,1.38-3.33,3.09-3.33,3.09,1.49,3.09,3.33Z" style="fill:#889e90; stroke-width:0px;"/><path d="M978.91,217.57c-8.58,0-15.55,7.51-15.55,16.77s6.96,16.77,15.55,16.77,15.55-7.51,15.55-16.77-6.96-16.77-15.55-16.77ZM978.91,221.48c6.58,0,11.93,5.76,11.93,12.86s-5.34,12.86-11.93,12.86-11.93-5.76-11.93-12.86,5.34-12.86,11.93-12.86Z" style="fill:#889e90; stroke-width:0px;"/><path d="M813.87,366.46c-31.76,0-57.51,27.77-57.51,62.03,0,9.31,1.9,18.15,5.31,26.07,1.74-1.08,3.72-1.72,5.87-1.72,6.55,0,11.9,5.77,11.9,12.84,0,3.65-1.44,6.89-3.71,9.23,10.15,9.7,23.5,15.56,38.13,15.56,13.76,0,26.38-5.26,36.28-13.95-2.19-6.26-4.03-12.7-5.51-19.29-7.47,9.27-18.47,15.12-30.77,15.12-22.5,0-40.76-19.59-40.76-43.85s18.26-43.96,40.76-43.96c10.65,0,20.36,4.45,27.62,11.67.8-6.76,1.98-13.42,3.5-19.9-8.97-6.24-19.66-9.84-31.13-9.84h0Z" style="fill:#889e90; stroke-width:0px;"/><path d="M813.87,392.26c-18.53,0-33.55,16.26-33.55,36.24s15.02,36.13,33.55,36.13c12.23,0,22.94-7.03,28.81-17.56-1.58-9.57-2.42-19.4-2.42-29.46,0-3.67.14-7.34.36-10.95-6.13-8.71-15.83-14.4-26.75-14.4h0ZM813.87,408.27c10.32,0,18.66,9.1,18.66,20.23s-8.33,20.12-18.66,20.12-18.66-8.99-18.66-20.12,8.33-20.23,18.66-20.23h0Z" style="fill:#889e90; stroke-width:0px;"/><path d="M939.34,573.88c-13.8,0-24.99,12.07-24.99,26.96s11.19,26.96,24.99,26.96,24.99-12.07,24.99-26.96-11.19-26.96-24.99-26.96ZM939.34,580.16c10.58,0,19.17,9.26,19.17,20.68s-8.59,20.68-19.17,20.68-19.17-9.26-19.17-20.68,8.59-20.68,19.17-20.68Z" style="fill:#889e90; stroke-width:0px;"/><path d="M947.25,600.84c0,4.71-3.54,8.53-7.91,8.53s-7.91-3.82-7.91-8.53,3.54-8.53,7.91-8.53,7.91,3.82,7.91,8.53Z" style="fill:#889e90; stroke-width:0px;"/><path d="M883.96,483.18c-27.6,0-49.99,24.14-49.99,53.91s22.39,53.86,49.99,53.86,49.99-24.09,49.99-53.86-22.39-53.91-49.99-53.91ZM883.96,498.91c19.55,0,35.4,17.1,35.4,38.18s-15.85,38.13-35.4,38.13-35.4-17.04-35.4-38.13,15.85-38.18,35.4-38.18Z" style="fill:#889e90; stroke-width:0px;"/><path d="M883.96,505.64c-16.1,0-29.17,14.09-29.17,31.46s13.07,31.4,29.17,31.4,29.17-14.04,29.17-31.4-13.07-31.46-29.17-31.46ZM883.96,519.53c8.97,0,16.23,7.89,16.23,17.56s-7.26,17.51-16.23,17.51-16.23-7.83-16.23-17.51,7.26-17.56,16.23-17.56Z" style="fill:#889e90; stroke-width:0px;"/><path d="M1018.85,520.48c-27.79,0-50.3,24.28-50.3,54.25s22.51,54.25,50.3,54.25,50.3-24.28,50.3-54.25-22.51-54.25-50.3-54.25ZM1018.85,537.95c18.84,0,34.1,16.46,34.1,36.78s-15.26,36.78-34.1,36.78-34.11-16.46-34.11-36.78,15.26-36.78,34.11-36.78Z" style="fill:#889e90; stroke-width:0px;"/><path d="M1018.85,546.78c-14.3,0-25.91,12.52-25.91,27.95s11.61,27.95,25.91,27.95,25.91-12.52,25.91-27.95-11.61-27.95-25.91-27.95ZM1018.85,567.77c3.57,0,6.44,3.09,6.44,6.95s-2.87,6.95-6.44,6.95-6.44-3.09-6.44-6.95,2.87-6.95,6.44-6.95Z" style="fill:#889e90; stroke-width:0px;"/><path d="M871.89,173.27c-47.84,0-86.63,41.83-86.63,93.43s38.79,93.43,86.63,93.43,86.63-41.83,86.63-93.43-38.79-93.43-86.63-93.43ZM871.89,201.11c33.58,0,60.81,29.37,60.81,65.58s-27.23,65.53-60.81,65.53-60.81-29.31-60.81-65.53,27.23-65.58,60.81-65.58Z" style="fill:#889e90; stroke-width:0px;"/><path d="M871.89,210.07c-28.98,0-52.51,25.38-52.51,56.64s23.53,56.58,52.51,56.58,52.46-25.33,52.46-56.58-23.48-56.64-52.46-56.64ZM871.89,236.14c15.64,0,28.29,13.7,28.29,30.57s-12.65,30.51-28.29,30.51-28.34-13.65-28.34-30.51,12.7-30.57,28.34-30.57Z" style="fill:#889e90; stroke-width:0px;"/><path d="M995.15,256.81c-9.77,0-19.31,1.01-28.55,2.95.14,2.3.26,4.61.26,6.95,0,15.41-3.21,30.02-8.86,43.13,11.58-4.65,24.08-7.23,37.16-7.23,58.88,0,106.62,51.49,106.62,115,0,45.22-24.22,84.32-59.42,103.1,13.51,7.04,23.96,19.76,28.76,35.29,43.78-28.01,73.13-79.51,73.13-138.39,0-88.81-66.75-160.8-149.09-160.8h0ZM900.69,364.3c-9.09,3.12-18.76,4.84-28.81,4.84-6.28,0-12.41-.69-18.35-1.95-4.85,15.86-7.47,32.8-7.47,50.41,0,23.7,4.76,46.22,13.3,66.47,7.41-4.01,15.73-6.28,24.58-6.28s16.75,2.13,24.01,5.95c-12.23-18.71-19.43-41.5-19.43-66.14,0-19.24,4.41-37.36,12.16-53.3h0ZM933.52,511.42c3.46,7.76,5.41,16.43,5.41,25.62s-2.16,18.7-5.93,26.73c9.22,4.57,18.95,8.14,29.06,10.62.17-16.95,6.84-32.22,17.42-43.07-16.94-2.69-32.6-9.68-45.97-19.9h0Z" style="fill:#889e90; stroke-width:0px;"/><path d="M995.15,320.57c-49.68,0-89.98,43.46-89.98,97.04s40.3,96.99,89.98,96.99,89.93-43.41,89.93-96.99-40.25-97.04-89.93-97.04ZM995.15,366.42c26.22,0,47.46,22.91,47.46,51.19s-21.24,51.19-47.46,51.19-47.51-22.91-47.51-51.19,21.29-51.19,47.51-51.19h0Z" style="fill:#889e90; stroke-width:0px;"/><path d="M403.04,53.82c-3.2-.04-6.29.79-8.86,2.82-9.51,7.5-5.26,28.64,4.88,26.9,2.34-.4,5.4-3.15,6.41-7.09,1.68-6.54-2.7-9.14-6.06-5.17-3.3,3.9-6.09,1.66-5.71-4.56.44-7.15,5.17-11.11,11.74-9.79,4.43.89,7.81,2.34,13.85,11.36,26.74,39.92,11.45,62.27,42.24,118.24-16.63-15.13-30.41-22.05-45.74-16.73-13.54,4.7-20.82,11.5-21.68,26.61-.93,16.23,9.72,28.44,22.41,25.71,8.85-1.9,18.33-14.53,11.15-21.06-9.86-8.97-20.37-.08-17.16,9.18,2.74,7.89-7.52,5.04-11.02-4.82-8.66-24.4,21.49-44.11,47.22-24.38,35.52,31.64,53.38,54.89,78.95,73.39,20.98,15.18,60.37,35.67,82.11,47.53,22.12,11.98,46.7,18.4,76.13,19.87,4.22.21,3.59.73-4.04,3.2-26.81,8.66-48.78,19.32-70.95,34.49-42.49,28.91-127.16,86.25-183.82,68.1-42.23-13.53-63.08-35.29-103.01-84.95-8.65-10.75-6.14-17.41-3.93-30.62,2.53-15.14,5.87-23.35,15.06-28.82,8.84-5.27,17.72-9.65,17.35-13.89-.65-7.31-12.89-4.09-22.65,6.01-7.85,8.13-13.72,25.26-14.9,43.49-.57,8.87-1.52,13.47-2.48,12.11-.85-1.2-4.76-3.35-8.65-4.79-32.56-19.96-61.81,14.12-85.58,19.32-20.25,4.43-38.68,1.61-52.61-20.37-10.95-18.06-26.2-54.57,1.19-64.96l5.09-.32-5.17,2.21c-9.38,3.99-7.79,16.99,2.07,17.05,7.04.05,10.9-4.45,10.24-12-.73-8.21-5.76-13.14-12.63-12.43-1.32.14-2.54.46-3.72.93-8.25,3.29-16.01,13.69-14.38,31.09,5.3,56.95,50.17,82.03,93.9,53.92,17.15-11.02,33.46-14.88,20.96-5.08-15.39,14.55-11.23,33.4,4.07,45.41,7.81,4.44,14.15,5.04,19.83,1.77,13.88-8,11.98-29-2.8-30.45-7.31-.71-12.86,4.98-10.56,10.81,1.57,3.99,6.93,5.85,9.86,3.46,1.31-1.07.64-1.76-2.21-2.18-4.86-.72-5.82-4.38-1.94-7.61,6.27-5.22,14.46,6.36,10.8,15.28-6.37,15.53-27.57,7.42-32.14-11.59-5.9-16.53,22.57-36.4,46.47-27.28,5.12,2.32,11.68,8.14,13.25,10.31,38.35,52.9,72.13,81.31,111.76,91.52,11.91,3.07,23.01,4.59,33.4,4.88-99.36,22.55-194.82-30.67-247.37-39.37-19.28-3.19-23.98-1.31-30.87.49-35.05,9.16-32.58-28.49-49.48-29.69-3.36-.24-4.17-.41-6.41-.35-2.88.08-5.37,1.5-8.16,4.36-4.61,4.72-5.3,12.13-1.56,16.53,3.61,4.25,5.81,1.6,5.44-6.54.35-22,20.07-7.94,26.48,5.43,9.13,19.06,25.73,13.43,18.24,19.47-14.04,11.32-35.23,25.89-46.71,44.36-6.72,10.81-12.55,30.56-11.74,39.8.66,7.59,2.45,16.33,11.58,18.68,11.53,2.97,24.56-12.18,17.32-20.02-1.68-1.81-4.14-4.3-7.69-2.88-5.9,2.36-5.84,9.54-.89,10.15,4.86.6,3.97,3.94-.93,7.25-5.63,3.81-11.36,1.99-14.22-4.53-1.92-4.39-1.87-7.86.43-18.71,1.56-7.33,4.91-17.28,7.41-22.11,8.51-16.45,29.05-38.2,43.8-46.31,6.24-3.43,25.92-11.16,27.45-10.78.57.14-3.14,3.41-8.22,7.26-11.57,8.78-22.06,26.83-25.24,43.4l-2.07,10.81,3.21-9.27c5.45-15.85,12.29-27.26,20.8-34.63,15.45-13.39,26.87-16.33,58.37-9.15,40.5,9.22,159.66,68.03,269.05,18.39,44.74-16.55,74.71-53.94,107.54-65.17-44.95,37.95-64.74,107.45-109.37,148.75-11.72,10.84-25.95,15.22-33.46,15.66-7.51.44-13.77-3.27-15.89-10.14-1.99-6.44.82-16.05,6.09-20.89,4.13-3.8,6.68-9.92,5.06-12.11-3.56-4.83-13.24,2.37-16.57,12.35-3.3,9.9-2,18.04,3.93,24.7,2.93,3.29,4.55,6.17,3.58,6.39-2.44.55-13.71-3.12-21.55-12.26-7.84-9.14-12.43-29.47-4.15-35.47,8.21-5.95,8.28-12.68,3.31-14.61-11.26-4.37-21.89,18.67-8.38,44.22,13.51,25.55,40.75,28.43,70.79,14,30.04-14.42,72.47-102.29,114.97-146.11,16.58-20.92,31.8-21.96,20.93-4.76-57.88,109.64-122.85,195.4-223.23,235.45-26.86,10.72-63.65,2.13-79.65-12.96-13.03-11.41-8.76-32.1,2.07-46.72-35.94,40.82,3.46,71.43,46.39,69.32,10.78-1.8,6.27-.04-8.94,5.03-44.06,8.99-120.64-2.81-123.72-63.54-.34-12.38,6.37-23.58,15.11-25.19,8.78-1.62,13.94,12.68,5.55,15.37-4.85,1.55-6.69-.44-2.69-2.93,2.45-1.53,2.56-2.33.48-3.86-3.76-2.77-7.84,2.17-5.09,6.16,3.05,4.43,11.39,2.56,12.96-2.91,1.5-5.23-1.27-11.44-5.1-13.23-22.27-10.41-34.86,23.3-20.43,52.63,14.43,29.33,63.39,47.97,102.58,43.67,186.24-20.35,265.84-212.83,308.06-272.6,36.1-24.02,77.84-34,113.95-27.25,16.78,3.14,17.35,3.13,16.41-.61-.93-3.68-2.13-4.15-23.11-8.31-23.5-4.66-38.75-5.82-65.46-5.03-10.03.3-26.14-1.03-41.05-3.4-23.18-3.69-25.33-4.32-38.71-11.33-23.31-12.22-36.1-28.28-33.54-42.13,1.65-8.94,6.87-12.22,15.54-9.7,7.97,2.32,10.99,1.03,11.45-4.94.38-4.91-6.66-9.89-13.74-9.73-11.3.25-21.21,14.07-19.18,26.76,1.46,9.13,3.78,13.62,11.31,21.91,7.62,8.38,6.05,8.18-3.58-.46-28.38-25.48-36.82-56.57-19.77-72.66,7.84-7.39,15.43-8.26,31.98-3.72,9.11,2.5,13.81,2.98,16.97,1.71,5.66-2.26,6.64-7.23,2.51-12.75-5.26-7.03-12.28-9.35-25.19-8.31-21.36,1.72-36.76,16.06-38.39,35.71-.9,10.87-2.85,7.37-3.58-6.39-.9-17,3.38-35.8,10.24-44.97,8.46-11.32,20.63-17.41,37.17-18.68,14.42-1.1,24.07-5.58,25.38-11.71,1.04-4.89-4.89-13.31-10.29-14.64-1.78-.44-3.77-.69-5.85-.73-.56,0-1.15-.02-1.72,0-8.68.3-19.04,3.83-27.56,9.59-25.06,16.95-37.16,44.81-33.46,77.13,2.54,22.18,10.31,41.47,25.29,60.78-22.05-8.13-64.31-38.1-90.27-67.43-27.68-31.31-31.2-55.49-44.77-105.84-5.14-19.08-16.63-41.01-24.16-45.5-3.57-2.13-7.85-3.61-11.96-3.66h-.01Z" style="fill:#889e90; stroke-width:0px;"/><path d="M885.21,601.91c-2.88.02-5.13,1.53-8.67,5.58-17.25,19.73-7.97,53.1,18.24,65.66,13.58,6.51,23.91,7.38,38.82,3.31,21.7-5.92,38.81-17.77,55.38-38.35,9.86-12.25,5.7-3.98-6.01,11.91-22.35,30.34-54.61,50.14-87.82,53.92-13.65,1.55-36.53-1.39-53.55-6.89-6.12-1.98-12.08-4.21-16.24-5.26-1.82,1.35-3.69,2.57-5.63,3.6.1.08.18.14.3.23,4.56,3.59,32.02,14.35,43.13,16.1,20.21,3.17,38.87,1.38,61.5-5.93,35.24-11.38,60.39-33.4,81.62-71.53.74-1.33-.98-2.84-4.74-4.18l-5.9-2.09-12.36,14.38c-10.67,12.39-14.66,15.61-28.9,23.3-14.96,8.08-17.58,8.92-27.69,8.92-8.81,0-12.09-.78-15.52-3.69-5.46-4.63-5.62-10.11-.38-12.26,5.1-2.09,6.42-4.51,3.77-6.89-3.1-2.77-10.1,1.52-10.78,6.59-1,7.54,1.31,12.82,6.79,15.51l5.31,2.61-7.41-1.1c-9.44-1.4-18.67-7.82-21.36-14.82-3-7.82,1.68-16.06,11.31-19.9,8.23-3.28,11.17-7.32,7.62-10.49-5.09-4.55-19.25,5.03-22.33,15.11-1.42,4.63-1.46,7.76-.13,11.85,2.89,8.94.79,7.88-4.66-2.38-8.24-15.49-6.34-26.57,6.6-38.52,7.94-7.33,8.37-13.32,1-14.24-.44-.05-.88-.09-1.29-.09h0Z" style="fill:#889e90; stroke-width:0px;"/><path d="M828.5,541.45c-31.74,9.85-46.93,32.68-50.21,66.21,2.77-1.57,5.64-2.81,8.59-3.72,3.77-19.01,13.9-41.21,53.26-31.12-10.52-9.65-10.63-27.15-11.64-31.38h0Z" style="fill:#889e90; stroke-width:0px;"/><path d="M402.98,343.07c5.18.78,16.11,4.8,13.98,12.38-2.48,8.84-12.02,1.22-17.06-7.07-40.39-7.64-47.15,43.87-8.11,67.98-43.9-21.1-41.66-85.14,11.19-73.29h0Z" style="fill:#889e90; stroke-width:0px;"/><path d="M696.8,536.04c-8.27-.01-15.94,1.92-21.58,5.9-17.21,12.14-15.97,33.02,2.05,34.43,8.74.16,17.76-6.82,11.96-16.79-5.12-7.73-14.47-4.14-11.48,4.62.97,2.84,4.64,2.97,5.23.73.93-3.6,7.84-1.75,4.47,4.15-5.5,9.64-21.82,4.39-21.04-7.26.62-9.21,8.31-16.85,20.12-19.44,9.41-2.06,13.32-1.62,24.49,2.85,10.78,4.32,15.61,8.44,25.59,21.91,6.76,9.12,15.94,23.25,19.99,31.48,3.77,7.67,4.14,9.48,9.41,18.57,1.65-1.46,3.31-2.92,4.97-4.37-9.66-27.57-18.1-42.54-41.4-63.89-8.5-7.79-22.15-12.86-32.78-12.87h0Z" style="fill:#889e90; stroke-width:0px;"/><path d="M773.62,458.63c3.56,4.56,2.76,10.1.2,13.13-1.98,2.34-5.22,4.87-10.78,4.97-12.89.25-27.82-16.17-29.29-36.18-2.51-34.19,19.12-75.07,54.61-95.9,13.69-8.04,12.16-3.98-2.57,6.82-17.37,12.73-30.67,27.98-37.14,42.6-6.44,14.55-8.33,23.9-8.38,41.46-.03,11.68.68,15.87,3.79,22.23,4.84,9.9,12.77,15.84,21.15,15.84,13.06-.3,8.79-18.12,1.49-13.5-2.13,1.35.4.73,2.34,2.67,1.93,1.94-.89,4.09-3.1,3.71-3.89-.65-4.19-4.87-1.59-8.09,1.95-2.42,7.29-2.33,9.28.23h0Z" style="fill:#889e90; stroke-width:0px;"/><path d="M1201.58,371.2c-25.11,0-45.47,21.96-45.47,49.04s20.36,49.04,45.47,49.04,45.47-21.96,45.47-49.04-20.36-49.04-45.47-49.04ZM1201.58,392.67c14.12,0,25.56,12.34,25.56,27.57s-11.44,27.57-25.56,27.57-25.59-12.34-25.59-27.57,11.47-27.57,25.59-27.57Z" style="fill:#889e90; stroke-width:0px;"/><path d="M1210.38,527.67c-25.96,0-47,22.7-47,50.69s21.04,50.69,47,50.69,47-22.7,47-50.69-21.04-50.69-47-50.69ZM1210.38,542.77c18.22,0,32.99,15.93,32.99,35.58s-14.77,35.55-32.99,35.55-32.99-15.9-32.99-35.55,14.77-35.58,32.99-35.58Z" style="fill:#889e90; stroke-width:0px;"/><path d="M1593.28,567.21c-9.59,0-17.37,8.39-17.37,18.73s7.78,18.73,17.37,18.73,17.37-8.39,17.37-18.73-7.78-18.73-17.37-18.73ZM1593.28,571.58c7.35,0,13.32,6.44,13.32,14.37s-5.97,14.37-13.32,14.37-13.32-6.44-13.32-14.37,5.97-14.37,13.32-14.37Z" style="fill:#889e90; stroke-width:0px;"/><path d="M1596.36,585.95c0,1.84-1.38,3.33-3.09,3.33s-3.09-1.49-3.09-3.33,1.38-3.33,3.09-3.33,3.09,1.49,3.09,3.33Z" style="fill:#889e90; stroke-width:0px;"/><path d="M1062.35,201.59c-13.9,0-25.15,12.13-25.15,27.12s11.25,27.19,25.15,27.19,25.15-12.2,25.15-27.19-11.25-27.12-25.15-27.12h0ZM1062.35,206.82c11.22,0,20.3,9.79,20.3,21.89s-9.07,21.95-20.3,21.95-20.3-9.85-20.3-21.95,9.07-21.89,20.3-21.89Z" style="fill:#889e90; stroke-width:0px;"/><path d="M1069.59,228.74c0,4.32-3.25,7.83-7.26,7.83s-7.26-3.5-7.26-7.83,3.25-7.83,7.26-7.83,7.26,3.5,7.26,7.83Z" style="fill:#889e90; stroke-width:0px;"/><path d="M1268.49,367c14.71-14.05,16.07-38.31,3.04-54.17-13.03-15.86-35.52-17.33-50.23-3.28-14.71,14.05-16.07,38.31-3.04,54.17s35.52,17.33,50.23,3.28ZM1262.99,360.31c-11.28,10.77-28.54,9.64-38.53-2.52-9.99-12.16-8.94-30.78,2.34-41.55,11.28-10.77,28.54-9.64,38.53,2.52,9.99,12.16,8.94,30.78-2.34,41.55Z" style="fill:#889e90; stroke-width:0px;"/><path d="M1233.44,349.23c-5.61-6.83-5.02-17.26,1.31-23.31s16.01-5.41,21.61,1.41c5.61,6.83,5.02,17.26-1.31,23.31s-16.01,5.41-21.61-1.41Z" style="fill:#889e90; stroke-width:0px;"/></svg>