<svg width="230" height="77" fill="none" xmlns="http://www.w3.org/2000/svg"><path d="M51.32 29H39.015v-1.107h3.282V5.498h-3.282V4.391h13.7c2.187 0 4.046.52 5.578 1.558C60.097 7.18 61 8.807 61 10.83c0 .602-.082 1.19-.246 1.764-.657 2.324-2.42 3.883-5.291 4.676l6.316 10.664h.533c.137 0 .274.013.41.04.438.083.657.424.657 1.026l-7.22.041-6.11-11.28h-2.01v10.132h3.281V29ZM50.254 5.498h-2.215v11.033h2.543c.82 0 1.545-.205 2.173-.615 1.422-.902 2.133-2.53 2.133-4.88 0-.766-.095-1.505-.287-2.216-.656-2.215-2.105-3.322-4.347-3.322ZM71.488 20.1c0 2.57.164 4.443.492 5.619.492 1.75 1.586 2.625 3.282 2.625.957 0 1.736-.287 2.338-.862 1.039-1.039 1.558-3.554 1.558-7.546 0-2.489-.164-4.307-.492-5.456-.492-1.777-1.613-2.665-3.363-2.665-1.04 0-1.846.314-2.42.943-.93 1.066-1.395 3.514-1.395 7.342Zm4.02-9.352c2.351 0 4.361.643 6.029 1.928 2.16 1.722 3.24 4.115 3.24 7.178 0 2.296-.683 4.32-2.05 6.07-1.833 2.324-4.362 3.486-7.588 3.486-2.352 0-4.375-.71-6.07-2.133-2.134-1.804-3.2-4.252-3.2-7.341 0-2.188.629-4.102 1.887-5.743 1.804-2.296 4.388-3.445 7.752-3.445Zm17.748 17.145 5.25.04-.123-.04c1.695-.028 2.803-.903 3.322-2.625l.862-3.24h1.066L103.551 29H87.76v-.902L98.71 12.47h-4.88c-1.15.027-2.052.683-2.708 1.969l-1.394 3.035h-1.026l.287-6.112h14.766v.862l-10.5 15.668Zm30.051 1.517c-2.187-.137-3.568-1.38-4.142-3.732a5.952 5.952 0 0 1-.533 1.107c-1.094 1.75-2.803 2.625-5.127 2.625a7.162 7.162 0 0 1-2.092-.287c-2.133-.684-3.199-2.242-3.199-4.676.027-3.582 3.554-5.441 10.582-5.578v-2.666c0-.793-.055-1.476-.164-2.05-.274-1.56-1.053-2.338-2.338-2.338-.383 0-.725.068-1.026.205-.465.273-.847.957-1.148 2.05-.11.383-.192.657-.246.82-.41 1.15-1.203 1.723-2.379 1.723-.274 0-.533-.04-.779-.123-1.012-.273-1.518-.943-1.518-2.01 0-.464.123-.902.369-1.312.957-1.613 3.295-2.42 7.014-2.42.957 0 1.845.096 2.666.287 3.172.793 4.758 2.899 4.758 6.317v8.572c0 1.312.3 1.996.902 2.05.793-.027 1.271-.984 1.435-2.87l1.067.04c-.082.848-.205 1.546-.369 2.092-.492 1.45-1.737 2.174-3.733 2.174Zm-7.67-1.764c.192 0 .411-.04.657-.123 1.148-.437 1.982-1.613 2.502-3.527v-3.978c-1.231.054-2.243.205-3.036.45-1.476.548-2.214 1.723-2.214 3.528.027 2.379.724 3.596 2.091 3.65Zm25.991.288c.164 0 .315.013.451.04.356.055.534.397.534 1.026h-11.444v-1.066c.766 0 1.381-.055 1.846-.165.902-.246 1.353-.93 1.353-2.05V3.406h-3.199V2.34h8.408v25.594h2.051Zm15.081-16.12c-2.188.082-3.377 2.393-3.569 6.932l2.625.123c1.094.055 1.914-.014 2.461-.205.766-.3 1.149-1.094 1.149-2.379-.028-2.926-.916-4.416-2.666-4.47Zm7.67 12.961a6.212 6.212 0 0 1-.657 1.272c-1.394 2.242-3.691 3.363-6.89 3.363-1.805 0-3.418-.369-4.84-1.107-2.98-1.559-4.471-4.32-4.471-8.285 0-2.434.657-4.471 1.969-6.112 1.723-2.105 4.129-3.158 7.219-3.158 1.695 0 3.213.287 4.553.861 2.378 1.067 3.568 2.762 3.568 5.086 0 .465-.082.889-.246 1.272-.711 1.531-3.268 2.228-7.67 2.092l-3.774-.123c.028 1.585.164 2.953.411 4.101.628 2.79 2.037 4.184 4.224 4.184a5.68 5.68 0 0 0 2.01-.37c1.641-.601 2.844-1.736 3.609-3.404l.985.328ZM160.277 6.36c-.41.274-1.148.602-2.215.985-2.789.902-4.58 1.545-5.373 1.927l-.615-.902a35.158 35.158 0 0 0 3.322-3.363c1.121-1.313 1.86-2.106 2.215-2.38a2.56 2.56 0 0 1 1.272-.45c.382 0 .752.11 1.107.328.793.492 1.189 1.203 1.189 2.133-.027.71-.328 1.285-.902 1.722Zm17.911 21.575c.164 0 .314.013.451.04.355.055.533.397.533 1.026h-9.597v-1.066c.218 0 .423-.014.615-.041 1.176-.137 1.763-.834 1.763-2.092V12.43h-2.378v-1.067h7.3l.205 3.2c.247-.493.575-.971.985-1.436 1.394-1.586 3.09-2.379 5.086-2.379.711 0 1.394.11 2.051.328 2.406.848 3.609 2.967 3.609 6.358v10.5h1.353c.164 0 .329.013.493.04.355.055.533.397.533 1.026h-9.475v-1.066c.383 0 .711-.041.985-.123.601-.192.902-.862.902-2.01v-9.065c0-.383-.027-.752-.082-1.107-.274-1.832-1.19-2.748-2.748-2.748-.41 0-.807.096-1.19.287-1.394.684-2.187 2.105-2.379 4.266l-.041 10.5h1.026Z" fill="#fff"/><path d="M50.48 64.68c.204 0 .39.017.559.05.44.068.66.491.66 1.27H40.172v-1.32c.27 0 .525-.017.762-.051 1.455-.17 2.183-1.033 2.183-2.59V45.484h-2.945v-1.32h9.039l.254 3.707c1.49-2.945 3.86-4.435 7.11-4.469.54 0 1.082.068 1.624.203 2.065.61 3.504 2.116 4.317 4.52 1.625-3.115 4.079-4.689 7.363-4.723 1.185 0 2.285.322 3.3.965 2.201 1.388 3.301 3.741 3.301 7.059V64.68h1.676c.203 0 .406.017.61.05.44.068.66.491.66 1.27H67.848v-1.32c.541 0 .964-.051 1.27-.153.642-.27.964-1.1.964-2.488V50.816c0-.846-.102-1.625-.305-2.336-.541-1.726-1.54-2.59-2.996-2.59-.338 0-.677.068-1.016.204-1.59.677-2.505 2.42-2.742 5.23V64.68h.864c.203 0 .406.017.609.05.44.068.66.491.66 1.27H54.39v-1.32c.542 0 .965-.051 1.27-.153.643-.27.965-1.1.965-2.488V50.816c0-.914-.119-1.743-.355-2.488-.542-1.557-1.44-2.336-2.692-2.336-.44 0-.88.119-1.32.356-1.558.812-2.438 2.556-2.64 5.23l-.052 13.102h.914Zm83.928.406c2.268 0 3.571-.813 3.91-2.438.034-.237.051-.457.051-.66 0-1.726-1.084-3.165-3.25-4.316-.474-.271-1.236-.626-2.286-1.066-2.539-1.118-4.214-2.15-5.027-3.098-.88-1.016-1.32-2.218-1.32-3.606 0-2.877 1.574-4.824 4.722-5.84 1.321-.44 2.793-.66 4.418-.66 2.641 0 4.706.474 6.196 1.422 0-1.015.304-1.574.914-1.676a1.67 1.67 0 0 1 .406-.05v6.347h-1.625c-.135-3.08-1.811-4.638-5.027-4.672-2.167 0-3.504.711-4.012 2.133a3.504 3.504 0 0 0-.152 1.016c0 1.456 1.015 2.691 3.046 3.707.407.237 1.084.559 2.032.965 2.64 1.185 4.401 2.268 5.281 3.25 1.016 1.15 1.523 2.522 1.523 4.113 0 2.945-1.523 4.926-4.57 5.941-1.253.407-2.658.61-4.215.61-2.979 0-5.484-.525-7.515-1.574 0 .88-.22 1.388-.661 1.523-.203.034-.44.05-.711.05V58.79h1.727c.068 4.164 2.116 6.263 6.145 6.297Zm27.507-.406c.203 0 .389.017.558.05.44.068.661.491.661 1.27h-12.493v-1.32c.44 0 .83-.034 1.168-.102 1.185-.203 1.778-1.05 1.778-2.539V45.484h-2.946v-1.32h9.395V64.68h1.879Zm-1.422-27.168c0 .643-.169 1.252-.508 1.828-.711 1.252-1.811 1.879-3.301 1.879a3.753 3.753 0 0 1-1.777-.457c-1.32-.677-1.981-1.76-1.981-3.25 0-.644.153-1.253.458-1.828.744-1.32 1.845-1.98 3.3-1.98.644 0 1.253.168 1.828.507 1.321.71 1.981 1.811 1.981 3.3Zm8.82 17.52c0-3.318.998-6.027 2.996-8.126 2.234-2.336 5.146-3.504 8.734-3.504 2.641 0 4.841.525 6.602 1.575 1.794 1.117 2.691 2.42 2.691 3.91 0 .27-.034.541-.102.812-.406 1.287-1.472 1.93-3.199 1.93-.812 0-1.455-.17-1.929-.508-.61-.44-1.016-1.439-1.219-2.996-.102-.643-.186-1.1-.254-1.371-.339-1.388-1.253-2.082-2.742-2.082-.745 0-1.388.152-1.93.457-1.794 1.083-2.691 4.469-2.691 10.156 0 2.844.287 5.044.863 6.602.779 2.099 2.336 3.148 4.672 3.148.88 0 1.76-.135 2.64-.406 2.269-.711 3.877-2.082 4.825-4.113l1.32.355a8.249 8.249 0 0 1-1.473 2.438c-1.896 2.132-4.604 3.199-8.125 3.199-2.268 0-4.282-.423-6.043-1.27-3.758-1.862-5.636-5.264-5.636-10.207Z" fill="#D9D9D9"/><path d="M87.854 64.375h3.854M87.854 59.75h3.854M87.854 55.125h3.854M87.854 50.5h3.854M96.333 64.375h3.854M96.333 59.75h3.854M96.333 55.125h3.854M96.333 50.5h3.854M96.333 45.875h3.854M96.333 41.25h3.854M96.333 36.625h3.854M104.812 64.375h3.855M113.292 64.375h3.854M104.812 59.75h3.855M113.292 59.75h3.854M104.812 55.125h3.855M113.292 55.125h3.854M113.292 50.5h3.854M113.292 45.875h3.854" stroke="#fff" stroke-width="3" stroke-linecap="round" stroke-linejoin="round"/></svg>