<svg id="Capa_1" data-name="Capa 1" xmlns="http://www.w3.org/2000/svg" version="1.1" viewBox="0 0 183.2 77"><defs><style>.cls-3{fill:none;stroke:#825377;stroke-linecap:round;stroke-linejoin:round;stroke-width:3px}</style></defs><path d="M27.9 29H15.6v-1.1h3.3V5.5h-3.3V4.4h13.7c2.2 0 4 .5 5.6 1.6 1.8 1.2 2.7 2.9 2.7 4.9s0 1.2-.2 1.8c-.7 2.3-2.4 3.9-5.3 4.7l6.3 10.7h.9c.4 0 .7.4.7 1h-7.2l-6.1-11.2h-2V28H28v1.1Zm-1-23.5h-2.2v11h2.5c.8 0 1.5-.2 2.2-.6 1.4-.9 2.1-2.5 2.1-4.9s0-1.5-.3-2.2c-.7-2.2-2.1-3.3-4.3-3.3Zm21.2 14.6c0 2.6.2 4.4.5 5.6.5 1.8 1.6 2.6 3.3 2.6s1.7-.3 2.3-.9c1-1 1.6-3.6 1.6-7.5s-.2-4.3-.5-5.5c-.5-1.8-1.6-2.7-3.4-2.7s-1.8.3-2.4.9c-.9 1.1-1.4 3.5-1.4 7.3Zm4-9.4c2.4 0 4.4.6 6 1.9 2.2 1.7 3.2 4.1 3.2 7.2s-.7 4.3-2.1 6.1c-1.8 2.3-4.4 3.5-7.6 3.5s-4.4-.7-6.1-2.1c-2.1-1.8-3.2-4.3-3.2-7.3s.6-4.1 1.9-5.7c1.8-2.3 4.4-3.4 7.8-3.4Zm17.8 17.2h5.2-.1c1.7 0 2.8-.9 3.3-2.6l.9-3.2h1.1v7H64.4v-.9l11-15.6h-4.9c-1.1 0-2.1.7-2.7 2l-1.4 3h-1l.3-6.1h14.8v.9L70 28.1Zm30 1.5c-2.2-.1-3.6-1.4-4.1-3.7-.1.4-.3.8-.5 1.1-1.1 1.8-2.8 2.6-5.1 2.6s-1.5 0-2.1-.3c-2.1-.7-3.2-2.2-3.2-4.7 0-3.6 3.6-5.4 10.6-5.6v-2.7c0-.8 0-1.5-.2-2.1-.3-1.6-1.1-2.3-2.3-2.3s-.7 0-1 .2c-.5.3-.8 1-1.1 2.1-.1.4-.2.7-.2.8-.4 1.1-1.2 1.7-2.4 1.7s-.5 0-.8-.1c-1-.3-1.5-.9-1.5-2s.1-.9.4-1.3c1-1.6 3.3-2.4 7-2.4s1.8 0 2.7.3c3.2.8 4.8 2.9 4.8 6.3v8.6c0 1.3.3 2 .9 2.1.8 0 1.3-1 1.4-2.9h1.1c0 .9-.2 1.6-.4 2.1-.5 1.4-1.7 2.2-3.7 2.2Zm-7.6-1.8c.2 0 .4 0 .7-.1 1.1-.4 2-1.6 2.5-3.5v-4c-1.2 0-2.2.2-3 .5-1.5.5-2.2 1.7-2.2 3.5 0 2.4.7 3.6 2.1 3.7Zm26 .3h.5c.4 0 .5.4.5 1h-11.4v-1.1c.8 0 1.4 0 1.8-.2.9-.2 1.4-.9 1.4-2.1V3.4h-3.2V2.3h8.4v25.6h2.1Zm15-16.1c-2.2 0-3.4 2.4-3.6 6.9h2.6c1.1.2 1.9.1 2.5 0 .8-.3 1.1-1.1 1.1-2.4 0-2.9-.9-4.4-2.7-4.5Zm7.7 13c-.2.4-.4.9-.7 1.3-1.4 2.2-3.7 3.4-6.9 3.4s-3.4-.4-4.8-1.1c-3-1.6-4.5-4.3-4.5-8.3s.7-4.5 2-6.1c1.7-2.1 4.1-3.2 7.2-3.2s3.2.3 4.6.9c2.4 1.1 3.6 2.8 3.6 5.1s0 .9-.2 1.3c-.7 1.5-3.3 2.2-7.7 2.1h-3.8c0 1.5.2 2.8.4 4 .6 2.8 2 4.2 4.2 4.2s1.4-.1 2-.4c1.6-.6 2.8-1.7 3.6-3.4l1 .3Zm-4.1-18.4c-.4.3-1.1.6-2.2 1-2.8.9-4.6 1.5-5.4 1.9l-.6-.9c1.1-1 2.3-2.1 3.3-3.4 1.1-1.3 1.9-2.1 2.2-2.4.4-.3.8-.4 1.3-.5.4 0 .8.1 1.1.3.8.5 1.2 1.2 1.2 2.1 0 .7-.3 1.3-.9 1.7Zm17.9 21.5h.5c.4 0 .5.4.5 1h-9.6v-1.1h.6c1.2-.1 1.8-.8 1.8-2.1V12.3h-2.4v-1.1h7.3l.2 3.2c.2-.5.6-1 1-1.4 1.4-1.6 3.1-2.4 5.1-2.4s1.4.1 2.1.3c2.4.8 3.6 3 3.6 6.4v10.5h1.9c.4 0 .5.4.5 1h-9.5v-1.1c.4 0 .7 0 1-.1.6-.2.9-.9.9-2V15.4c-.3-1.8-1.2-2.7-2.7-2.7s-.8 0-1.2.3c-1.4.7-2.2 2.1-2.4 4.3v10.5h1Z" style="fill:#825377;stroke-width:0"/><path d="M27.1 64.7h.6c.4 0 .7.5.7 1.3H16.9v-1.3h.8c1.5-.2 2.2-1 2.2-2.6V45.5H17v-1.3h9l.3 3.7c1.5-2.9 3.9-4.4 7.1-4.5.5 0 1.1 0 1.6.2 2.1.6 3.5 2.1 4.3 4.5 1.6-3.1 4.1-4.7 7.4-4.7 1.2 0 2.3.3 3.3 1 2.2 1.4 3.3 3.7 3.3 7.1v13.3h2.3c.4 0 .7.5.7 1.3H44.7v-1.3c.5 0 1 0 1.3-.2.6-.3 1-1.1 1-2.5V50.9c0-.8-.1-1.6-.3-2.3-.5-1.7-1.5-2.6-3-2.6s-.7 0-1 .2c-1.6.7-2.5 2.4-2.7 5.2v13.4h1.5c.4 0 .7.5.7 1.3H31.4v-1.3c.5 0 1 0 1.3-.2.6-.3 1-1.1 1-2.5V50.9c0-.9-.1-1.7-.4-2.5-.5-1.6-1.4-2.3-2.7-2.3s-.9.1-1.3.4c-1.6.8-2.4 2.6-2.6 5.2v13.1h.9Zm83.9.4c2.3 0 3.6-.8 3.9-2.4V62c0-1.7-1.1-3.2-3.2-4.3-.5-.3-1.2-.6-2.3-1.1-2.5-1.1-4.2-2.1-5-3.1-.9-1-1.3-2.2-1.3-3.6 0-2.9 1.6-4.8 4.7-5.8 1.3-.4 2.8-.7 4.4-.7 2.6 0 4.7.5 6.2 1.4 0-1 .3-1.6.9-1.7h.4v6.3h-1.6c-.1-3.1-1.8-4.6-5-4.7-2.2 0-3.5.7-4 2.1-.1.3-.2.7-.2 1 0 1.5 1 2.7 3 3.7.4.2 1.1.6 2 1 2.6 1.2 4.4 2.3 5.3 3.2 1 1.2 1.5 2.5 1.5 4.1 0 2.9-1.5 4.9-4.6 5.9-1.3.4-2.7.6-4.2.6-3 0-5.5-.5-7.5-1.6 0 .9-.2 1.4-.7 1.5h-.7v-7.7h1.7c0 4.2 2.1 6.3 6.1 6.3Zm27.5-.4h.6c.4 0 .7.5.7 1.3h-12.5v-1.3c.4 0 .8 0 1.2-.1 1.2-.2 1.8-1 1.8-2.5V45.5h-2.9v-1.3h9.4v20.5h1.9Zm-1.4-27.2c0 .6-.2 1.3-.5 1.8-.7 1.3-1.8 1.9-3.3 1.9s-1.2-.2-1.8-.5c-1.3-.7-2-1.8-2-3.2s.2-1.3.5-1.8c.7-1.3 1.8-2 3.3-2s1.3.2 1.8.5c1.3.7 2 1.8 2 3.3Zm8.8 17.5c0-3.3 1-6 3-8.1 2.2-2.3 5.1-3.5 8.7-3.5s4.8.5 6.6 1.6c1.8 1.1 2.7 2.4 2.7 3.9s0 .5-.1.8c-.4 1.3-1.5 1.9-3.2 1.9s-1.5-.2-1.9-.5c-.6-.4-1-1.4-1.2-3-.1-.6-.2-1.1-.3-1.4-.3-1.4-1.3-2.1-2.7-2.1s-1.4.2-1.9.5c-1.8 1.1-2.7 4.5-2.7 10.2s.3 5 .9 6.6c.8 2.1 2.3 3.1 4.7 3.1s1.8-.1 2.6-.4c2.3-.7 3.9-2.1 4.8-4.1l1.3.4c-.3.9-.8 1.7-1.5 2.4-1.9 2.1-4.6 3.2-8.1 3.2s-4.3-.4-6-1.3c-3.8-1.9-5.6-5.3-5.6-10.2Z" style="stroke-width:0;fill:#333"/><path class="cls-3" d="M64.5 64.4h3.9M64.5 59.8h3.9M64.5 55.1h3.9M64.5 50.5h3.9M73 64.4h3.9M73 59.8h3.9M73 55.1h3.9M73 50.5h3.9M73 45.9h3.9M73 41.3h3.9M73 36.6h3.9M81.4 64.4h3.9M89.9 64.4h3.9M81.4 59.8h3.9M89.9 59.8h3.9M81.4 55.1h3.9M89.9 55.1h3.9M89.9 50.5h3.9M89.9 45.9h3.9"/></svg>